<svg width="465" height="415" viewBox="0 0 465 415" fill="none" xmlns="http://www.w3.org/2000/svg">
<path d="M77.6491 290.122C77.6491 290.122 101.349 344.228 161.272 361.921C221.195 379.615 285.185 356.036 337.477 338.314C389.769 320.592 417.27 275.276 405.619 228.811C393.968 182.346 349.915 185.688 308.828 144.425C267.742 103.162 263.059 85.9431 206.122 73.755C149.185 61.5669 86.8637 109.55 71.2785 177.505C55.6934 245.461 77.6491 290.122 77.6491 290.122Z" fill="#1ACFD3"/>
<path opacity="0.8" d="M77.6491 290.122C77.6491 290.122 101.349 344.228 161.272 361.921C221.195 379.615 285.185 356.036 337.477 338.314C389.769 320.592 417.27 275.276 405.619 228.811C393.968 182.346 349.915 185.688 308.828 144.425C267.742 103.162 263.059 85.9431 206.122 73.755C149.185 61.5669 86.8637 109.55 71.2785 177.505C55.6934 245.461 77.6491 290.122 77.6491 290.122Z" fill="white"/>
<path d="M382.043 216.993C382.043 216.993 403.771 219.148 414.778 232.636C414.778 232.636 426.419 217.012 447.313 217.335C452.419 211.167 455.67 203.674 456.688 195.727C457.706 187.781 456.449 179.708 453.062 172.45C449.676 165.191 444.3 159.045 437.56 154.727C430.821 150.409 422.995 148.097 414.994 148.06C406.993 148.023 399.146 150.262 392.367 154.517C385.588 158.772 380.155 164.868 376.701 172.095C373.248 179.321 371.915 187.382 372.859 195.337C373.804 203.293 376.985 210.816 382.034 217.031L382.043 216.993Z" fill="#1ACFD3"/>
<path opacity="0.5" d="M382.043 216.993C382.043 216.993 403.771 219.148 414.778 232.636C414.778 232.636 426.419 217.012 447.313 217.335C452.419 211.167 455.67 203.674 456.688 195.727C457.706 187.781 456.449 179.708 453.062 172.45C449.676 165.191 444.3 159.045 437.56 154.727C430.821 150.409 422.995 148.097 414.994 148.06C406.993 148.023 399.146 150.262 392.367 154.517C385.588 158.772 380.155 164.868 376.701 172.095C373.248 179.321 371.915 187.382 372.859 195.337C373.804 203.293 376.985 210.816 382.034 217.031L382.043 216.993Z" fill="white"/>
<path d="M414.048 151.041L413.318 292.039H416.987L414.048 151.041Z" fill="#B8B8B8"/>
<path d="M415.158 228.526C415.158 228.526 422.486 215.303 435.692 211.26C435.692 211.26 421.756 214.573 414.836 225.954L415.158 228.526Z" fill="#B8B8B8"/>
<path d="M415.158 191.07C415.158 191.07 422.486 177.847 435.692 173.804C435.692 173.804 421.756 177.107 414.836 188.498L415.158 191.07Z" fill="#B8B8B8"/>
<path d="M415.158 209.779C415.158 209.779 422.486 196.556 435.692 192.513C435.692 192.513 421.756 195.825 414.836 207.207L415.158 209.779Z" fill="#B8B8B8"/>
<path d="M414.067 200.609C414.067 200.609 406.985 187.396 394.244 183.353C394.244 183.353 407.696 186.656 414.418 198.047L414.067 200.609Z" fill="#B8B8B8"/>
<path d="M414.067 218.977C414.067 218.977 406.985 205.754 394.244 201.72C394.244 201.72 407.696 205.023 414.418 216.404L414.067 218.977Z" fill="#B8B8B8"/>
<path d="M26.4201 216.993C26.4201 216.993 48.1483 219.148 59.1546 232.636C59.1546 232.636 70.796 217.012 91.6899 217.335C96.796 211.167 100.047 203.674 101.065 195.727C102.083 187.781 100.825 179.708 97.4392 172.45C94.0528 165.191 88.6769 159.045 81.9374 154.727C75.1979 150.409 67.3721 148.097 59.3711 148.06C51.3701 148.023 43.5231 150.262 36.7438 154.517C29.9645 158.772 24.5318 164.868 21.0783 172.095C17.6247 179.321 16.2924 187.382 17.2364 195.337C18.1805 203.293 21.362 210.816 26.4106 217.031L26.4201 216.993Z" fill="#1ACFD3"/>
<path opacity="0.5" d="M26.4201 216.993C26.4201 216.993 48.1483 219.148 59.1546 232.636C59.1546 232.636 70.796 217.012 91.6899 217.335C96.796 211.167 100.047 203.674 101.065 195.727C102.083 187.781 100.825 179.708 97.4392 172.45C94.0528 165.191 88.6769 159.045 81.9374 154.727C75.1979 150.409 67.3721 148.097 59.3711 148.06C51.3701 148.023 43.5231 150.262 36.7438 154.517C29.9645 158.772 24.5318 164.868 21.0783 172.095C17.6247 179.321 16.2924 187.382 17.2364 195.337C18.1805 203.293 21.362 210.816 26.4106 217.031L26.4201 216.993Z" fill="white"/>
<path d="M58.4426 151.041L57.7031 292.039H61.3719L58.4426 151.041Z" fill="#B8B8B8"/>
<path d="M59.543 228.526C59.543 228.526 66.8711 215.303 80.0767 211.26C80.0767 211.26 66.1411 214.573 59.2207 225.954L59.543 228.526Z" fill="#B8B8B8"/>
<path d="M59.543 191.07C59.543 191.07 66.8711 177.847 80.0767 173.804C80.0767 173.804 66.1411 177.107 59.2207 188.498L59.543 191.07Z" fill="#B8B8B8"/>
<path d="M59.543 209.779C59.543 209.779 66.8711 196.556 80.0767 192.513C80.0767 192.513 66.1411 195.825 59.2207 207.207L59.543 209.779Z" fill="#B8B8B8"/>
<path d="M58.4535 200.609C58.4535 200.609 51.372 187.396 38.6309 183.353C38.6309 183.353 52.083 186.656 58.8043 198.047L58.4535 200.609Z" fill="#B8B8B8"/>
<path d="M58.4535 218.977C58.4535 218.977 51.372 205.754 38.6309 201.72C38.6309 201.72 52.083 205.023 58.8043 216.404L58.4535 218.977Z" fill="#B8B8B8"/>
<path d="M293.756 230.662C293.756 230.662 311.54 232.418 320.546 243.457C320.546 243.457 330.074 230.671 347.176 230.927C351.353 225.878 354.012 219.745 354.843 213.242C355.674 206.739 354.643 200.133 351.87 194.193C349.097 188.254 344.697 183.225 339.18 179.693C333.664 176.16 327.259 174.27 320.712 174.241C314.164 174.211 307.742 176.045 302.195 179.529C296.648 183.012 292.203 188.001 289.377 193.916C286.552 199.83 285.463 206.427 286.236 212.937C287.01 219.448 289.614 225.604 293.746 230.69L293.756 230.662Z" fill="#1ACFD3"/>
<path opacity="0.5" d="M293.756 230.662C293.756 230.662 311.54 232.418 320.546 243.457C320.546 243.457 330.074 230.671 347.176 230.927C351.353 225.878 354.012 219.745 354.843 213.242C355.674 206.739 354.643 200.133 351.87 194.193C349.097 188.254 344.697 183.225 339.18 179.693C333.664 176.16 327.259 174.27 320.712 174.241C314.164 174.211 307.742 176.045 302.195 179.529C296.648 183.012 292.203 188.001 289.377 193.916C286.552 199.83 285.463 206.427 286.236 212.937C287.01 219.448 289.614 225.604 293.746 230.69L293.756 230.662Z" fill="white"/>
<path d="M319.959 176.632L319.361 292.039H322.366L319.959 176.632Z" fill="#B8B8B8"/>
<path d="M320.858 240.06C320.858 240.06 326.868 229.239 337.666 225.926C337.666 225.926 326.29 228.631 320.602 237.952L320.858 240.06Z" fill="#B8B8B8"/>
<path d="M320.858 209.399C320.858 209.399 326.868 198.578 337.666 195.274C337.666 195.274 326.29 197.98 320.602 207.292L320.858 209.399Z" fill="#B8B8B8"/>
<path d="M320.858 224.73C320.858 224.73 326.868 213.909 337.666 210.596C337.666 210.596 326.29 213.301 320.602 222.622L320.858 224.73Z" fill="#B8B8B8"/>
<path d="M319.968 217.211C319.968 217.211 314.176 206.39 303.748 203.087C303.748 203.087 314.754 205.792 320.262 215.104L319.968 217.211Z" fill="#B8B8B8"/>
<path d="M319.968 232.238C319.968 232.238 314.176 221.417 303.748 218.113C303.748 218.113 314.754 220.819 320.262 230.14L319.968 232.238Z" fill="#B8B8B8"/>
<path d="M121.684 230.662C121.684 230.662 139.468 232.418 148.474 243.457C148.474 243.457 157.954 230.671 175.103 230.927C179.28 225.878 181.939 219.745 182.77 213.242C183.602 206.739 182.571 200.133 179.798 194.193C177.025 188.254 172.624 183.225 167.108 179.693C161.592 176.16 155.187 174.27 148.639 174.241C142.091 174.211 135.67 176.045 130.123 179.529C124.575 183.012 120.13 188.001 117.305 193.916C114.48 199.83 113.39 206.427 114.164 212.937C114.937 219.448 117.542 225.604 121.674 230.69L121.684 230.662Z" fill="#1ACFD3"/>
<path opacity="0.5" d="M121.684 230.662C121.684 230.662 139.468 232.418 148.474 243.457C148.474 243.457 157.954 230.671 175.103 230.927C179.28 225.878 181.939 219.745 182.77 213.242C183.602 206.739 182.571 200.133 179.798 194.193C177.025 188.254 172.624 183.225 167.108 179.693C161.592 176.16 155.187 174.27 148.639 174.241C142.091 174.211 135.67 176.045 130.123 179.529C124.575 183.012 120.13 188.001 117.305 193.916C114.48 199.83 113.39 206.427 114.164 212.937C114.937 219.448 117.542 225.604 121.674 230.69L121.684 230.662Z" fill="white"/>
<path d="M147.886 176.632L147.289 292.039H150.294L147.886 176.632Z" fill="#B8B8B8"/>
<path d="M148.834 240.06C148.834 240.06 154.844 229.239 165.642 225.926C165.642 225.926 154.266 228.631 148.578 237.952L148.834 240.06Z" fill="#B8B8B8"/>
<path d="M148.834 209.399C148.834 209.399 154.844 198.578 165.642 195.274C165.642 195.274 154.266 197.98 148.578 207.292L148.834 209.399Z" fill="#B8B8B8"/>
<path d="M148.834 224.73C148.834 224.73 154.844 213.909 165.642 210.596C165.642 210.596 154.266 213.301 148.578 222.622L148.834 224.73Z" fill="#B8B8B8"/>
<path d="M147.889 217.212C147.889 217.212 142.106 206.391 131.678 203.135C131.678 203.135 142.684 205.84 148.192 215.152L147.889 217.212Z" fill="#B8B8B8"/>
<path d="M147.89 232.238C147.89 232.238 142.098 221.417 131.67 218.113C131.67 218.113 142.676 220.819 148.184 230.14L147.89 232.238Z" fill="#B8B8B8"/>
<path d="M32.9609 292.542H442.061" stroke="#263238" stroke-width="0.994239" stroke-miterlimit="10"/>
<path d="M178.707 114.591C178.707 107.253 182.575 103.058 189.637 103.058C196.7 103.058 200.577 107.253 200.577 114.591V138.454C200.577 145.792 196.71 149.987 189.637 149.987C182.565 149.987 178.707 145.792 178.707 138.454V114.591ZM185.912 138.91C185.912 142.185 187.353 143.428 189.637 143.428C191.922 143.428 193.373 142.185 193.373 138.91V114.135C193.373 110.86 191.932 109.617 189.637 109.617C187.343 109.617 185.912 110.86 185.912 114.135V138.91Z" fill="#263238"/>
<path d="M206.012 114.591C206.012 107.253 209.87 103.058 216.942 103.058C224.014 103.058 227.873 107.253 227.873 114.591V138.454C227.873 145.792 224.005 149.987 216.942 149.987C209.88 149.987 206.012 145.792 206.012 138.454V114.591ZM213.207 138.91C213.207 142.185 214.648 143.428 216.942 143.428C219.236 143.428 220.668 142.185 220.668 138.91V114.135C220.668 110.86 219.227 109.617 216.942 109.617C214.657 109.617 213.207 110.86 213.207 114.135V138.91Z" fill="#263238"/>
<path d="M255.232 114.923V120.884C255.232 128.231 251.696 132.275 244.501 132.275H241.097V149.512H233.893V103.589H244.501C251.696 103.589 255.232 107.585 255.232 114.923ZM241.097 110.177V125.706H244.501C246.785 125.706 248.027 124.662 248.027 121.387V114.505C248.027 111.221 246.785 110.177 244.501 110.177H241.097Z" fill="#263238"/>
<path d="M269.961 103.058C276.958 103.058 280.56 107.253 280.56 114.591V116.034H273.753V114.135C273.753 110.86 272.445 109.617 270.151 109.617C267.857 109.617 266.549 110.86 266.549 114.135C266.549 123.57 280.626 125.345 280.626 138.454C280.626 145.792 276.958 149.987 269.895 149.987C262.833 149.987 259.154 145.792 259.154 138.454V135.607H265.961V138.881C265.961 142.156 267.402 143.343 269.696 143.343C271.99 143.343 273.422 142.156 273.422 138.881C273.422 129.446 259.353 127.671 259.353 114.562C259.353 107.263 262.956 103.058 269.961 103.058Z" fill="#263238"/>
<path d="M287.044 139.299L286.096 122.725V103.589H293.301V122.725L292.353 139.299H287.044ZM293.196 142.517V149.465H286.295V142.517H293.196Z" fill="#263238"/>
<path opacity="0.3" d="M144.655 338.352C144.655 341.199 127.184 343.468 105.617 343.468C84.0498 343.468 66.5781 341.18 66.5781 338.352C66.5781 335.523 84.0592 333.235 105.617 333.235C127.174 333.235 144.655 335.532 144.655 338.352Z" fill="black"/>
<path opacity="0.3" d="M226.382 338.352C226.382 341.199 208.901 343.468 187.343 343.468C165.786 343.468 148.305 341.18 148.305 338.352C148.305 335.523 165.786 333.235 187.343 333.235C208.901 333.235 226.382 335.532 226.382 338.352Z" fill="black"/>
<path opacity="0.3" d="M334.644 338.352C334.644 341.199 317.172 343.468 295.615 343.468C274.057 343.468 256.576 341.18 256.576 338.352C256.576 335.523 274.048 333.235 295.615 333.235C317.182 333.235 334.644 335.532 334.644 338.352Z" fill="black"/>
<path opacity="0.3" d="M425.082 338.352C425.082 341.199 407.601 343.468 386.043 343.468C364.486 343.468 346.967 341.18 346.967 338.352C346.967 335.523 364.448 333.235 386.005 333.235C407.563 333.235 425.082 335.532 425.082 338.352Z" fill="black"/>
<path d="M299.833 188.678C299.833 188.678 298.231 195.322 298.231 196.442C298.23 197.135 298.153 197.826 298.003 198.502C298.003 198.502 294.581 202.612 295.036 203.751C295.589 204.637 296.381 205.348 297.32 205.802C297.32 205.802 299.141 212.446 300.97 212.883C302.849 213.235 304.749 213.463 306.658 213.566L307.341 219.043L316.461 217.677L314.185 209.456L315.133 202.375C315.133 202.375 316.726 199.413 315.133 194.62C313.541 189.826 310.118 189.598 307.834 189.598C305.153 189.428 302.482 189.121 299.833 188.678Z" fill="white" stroke="#263238" stroke-width="0.994239" stroke-linecap="round" stroke-linejoin="round"/>
<path d="M303.935 185.26C303.935 185.26 295.953 185.023 296.181 187.083C296.408 189.143 304.618 191.829 304.618 191.829C304.618 191.829 301.878 193.651 303.243 195.483C304.608 197.315 307.803 198.91 307.803 198.91C307.803 198.91 306.855 202.792 308.268 203.02C309.68 203.248 310.543 201.188 310.77 200.505C310.998 199.821 313.51 200.049 314.193 201.872C314.578 202.819 314.809 203.822 314.875 204.843C314.875 204.843 317.615 196.623 318.07 192.968C318.525 189.313 308.268 185.26 303.935 185.26Z" fill="#263238" stroke="#263238" stroke-width="0.994239" stroke-linecap="round" stroke-linejoin="round"/>
<path d="M308.99 203.134C308.99 203.134 311.749 197.059 313.398 200.049C315.048 203.039 314.346 206.153 312.725 206.485C311.104 206.817 309.749 207.14 309.749 207.14" fill="white"/>
<path d="M308.99 203.134C308.99 203.134 311.749 197.059 313.398 200.049C315.048 203.039 314.346 206.153 312.725 206.485C311.104 206.817 309.749 207.14 309.749 207.14" stroke="#263238" stroke-width="0.994239" stroke-linecap="round" stroke-linejoin="round"/>
<path d="M297.775 266.534C297.329 267.056 290.02 282.746 289.11 287.996C288.2 293.245 282.275 324.531 282.038 325.898C281.801 327.265 269.278 330.008 268.358 330.236C267.439 330.464 269.306 332.979 272.008 333.663C274.71 334.346 282.502 337.545 284.332 335.713C286.162 333.881 288.664 323.611 289.347 322.471C290.03 321.332 302.865 291.052 302.865 291.052C302.865 291.052 309.445 276.519 310.81 275.143C312.175 273.767 309.189 267.682 308.042 265.85C306.894 264.018 300.969 262.879 297.775 266.534Z" fill="#263238" stroke="#263238" stroke-width="0.994239" stroke-linecap="round" stroke-linejoin="round"/>
<path d="M296.409 266.733C296.409 266.733 299.603 282.034 301.196 287.511C302.687 292.111 304.929 296.432 307.832 300.297C309.662 302.813 318.554 324.977 318.554 324.977L319.919 328.404C319.919 328.404 319.464 329.771 316.961 331.593C314.459 333.416 307.377 336.387 309.207 337.08C311.036 337.773 318.326 337.763 321.749 337.535C324.695 337.326 327.457 336.023 329.494 333.881C330.868 332.277 327.219 327.711 327.219 326.8C327.219 325.888 319.236 298.038 318.781 296.662C318.326 295.285 316.042 285.48 316.042 285.48V274.326C316.042 274.326 317.189 272.276 317.189 267.682C317.189 263.088 313.767 262.195 313.767 262.195L295.062 264.027L296.409 266.733Z" fill="#263238" stroke="#263238" stroke-width="0.994239" stroke-linecap="round" stroke-linejoin="round"/>
<path d="M294.826 265.394C294.826 265.394 295.291 269.276 296.656 269.504C298.021 269.732 312.156 273.614 318.318 269.048C318.318 269.048 319.455 265.621 318.773 264.71C318.09 263.799 316.488 264.255 308.288 264.255C300.088 264.255 294.826 264.255 294.826 265.394Z" fill="#1ACFD3" stroke="#263238" stroke-width="0.994239" stroke-linecap="round" stroke-linejoin="round"/>
<path d="M315.787 214.25C315.787 214.25 307.349 215.389 303.7 218.996C300.05 222.603 296.865 229.276 295.272 235.437C293.679 241.597 292.532 264.208 294.807 265.347C297.083 266.486 316.242 267.634 319.455 266.296C322.669 264.958 319.228 254.193 319.228 250.083C319.228 245.973 322.878 232.048 322.195 224.293C321.513 216.538 315.787 214.25 315.787 214.25Z" fill="#1ACFD3" stroke="#263238" stroke-width="0.994239" stroke-linecap="round" stroke-linejoin="round"/>
<path d="M285.346 237.981C285.241 228.583 281.412 220.562 276.321 217.098V215.199L262.29 215.342C254.394 215.427 248.07 225.783 248.232 238.408C248.393 251.033 254.868 261.256 262.774 261.189L276.804 261.047V259.148C281.734 255.475 285.393 247.378 285.346 237.981Z" fill="#263238" stroke="#263238" stroke-width="0.994239" stroke-linecap="round" stroke-linejoin="round"/>
<path d="M291.64 237.914C291.536 228.042 287.735 219.613 282.388 215.949V213.927L276.378 213.993C268.073 214.079 261.466 224.928 261.608 238.227C261.75 251.526 268.585 262.233 276.889 262.147L282.9 262.081V260.069C288.123 256.291 291.745 247.748 291.64 237.914Z" fill="white" stroke="#263238" stroke-width="0.994239" stroke-linecap="round" stroke-linejoin="round"/>
<path d="M297.67 237.847C297.812 251.136 291.195 261.995 282.9 262.081C274.605 262.166 267.732 251.459 267.619 238.17C267.505 224.88 274.093 214.021 282.388 213.926C290.683 213.831 297.509 224.548 297.67 237.847Z" fill="#737373" stroke="#263238" stroke-width="0.994239" stroke-linecap="round" stroke-linejoin="round"/>
<path d="M294.22 237.439C294.287 243.732 291.149 248.877 287.214 248.925C283.28 248.972 280.038 243.884 279.972 237.534C279.905 231.183 283.043 226.143 286.977 226.048C290.912 225.953 294.154 231.136 294.22 237.439Z" fill="#263238" stroke="#263238" stroke-width="0.994239" stroke-linecap="round" stroke-linejoin="round"/>
<path d="M405.933 284.768C406.715 278.917 407.048 273.014 406.928 267.112C403.847 268.536 385.873 269.058 384.223 269.096C382.574 269.134 364.6 268.536 361.519 267.112C361.383 273.013 361.7 278.916 362.467 284.768C363.709 292.466 374.63 323.288 374.876 324.778C375.196 326.215 375.611 327.629 376.118 329.011C376.118 329.011 369.909 333.482 367.178 335.219C364.448 336.956 366.439 337.706 369.169 337.706C371.899 337.706 377.606 336.956 379.341 336.956C380.877 336.956 383.55 335.618 384.176 335.295C384.802 335.618 387.475 336.956 389.001 336.956C390.746 336.956 396.453 337.706 399.183 337.706C401.913 337.706 403.923 336.956 401.174 335.219C398.424 333.482 392.234 329.011 392.234 329.011C392.741 327.629 393.156 326.215 393.476 324.778C393.77 323.259 404.691 292.438 405.933 284.768Z" fill="#263238" stroke="#263238" stroke-width="0.994239" stroke-linecap="round" stroke-linejoin="round"/>
<path d="M380.469 218.787C380.469 218.787 370.866 221.929 365.908 225.08C360.95 228.232 355.973 245.299 355.973 245.963C355.688 247.153 355.301 248.315 354.816 249.438C354.816 249.438 349.849 248.28 348.863 252.418C347.877 256.557 353.821 261.863 356.968 262.034C360.116 262.205 361.102 261.208 361.102 261.208C361.102 261.208 359.12 265.185 359.945 266.837C360.77 268.489 367.728 274.63 381.465 274.431C395.201 274.231 405.165 271.944 406.615 269.96C408.066 267.976 408.274 263.828 408.274 263.828C408.274 263.828 413.403 262.499 415.223 259.186C417.043 255.873 416.711 252.39 415.716 248.916C414.72 245.441 409.592 235.351 406.122 229.713C402.652 224.074 395.362 220.932 391.902 219.936C388.442 218.939 382.782 218.787 380.469 218.787Z" fill="#1ACFD3" stroke="#263238" stroke-width="0.994239" stroke-linecap="round" stroke-linejoin="round"/>
<path d="M383.38 232.741C384.755 232.285 389.068 228.45 390.727 224.615C391.384 223.147 391.846 221.6 392.102 220.012L391.884 219.945C388.414 218.948 382.783 218.787 380.508 218.787C380.508 218.787 378.498 219.442 375.844 220.458C375.86 222.51 376.245 224.542 376.981 226.457C378.479 230.292 382.044 233.206 383.38 232.741Z" fill="white" stroke="#263238" stroke-width="0.994239" stroke-linecap="round" stroke-linejoin="round"/>
<path d="M399.164 240.486C399.164 240.486 403.136 261.702 407.639 263.885" stroke="#263238" stroke-width="0.994239" stroke-linecap="round" stroke-linejoin="round"/>
<path d="M361.102 261.208C361.102 261.208 366.069 242.48 366.401 240.657" stroke="#263238" stroke-width="0.994239" stroke-linecap="round" stroke-linejoin="round"/>
<path d="M405.581 250.073C405.581 250.073 402.832 250.69 402.832 252.684" stroke="#263238" stroke-width="0.994239" stroke-linecap="round" stroke-linejoin="round"/>
<path d="M358.875 250.377C358.875 250.377 361.937 252.37 361.634 255.436" stroke="#263238" stroke-width="0.994239" stroke-linecap="round" stroke-linejoin="round"/>
<path d="M379.389 336.975C380.925 336.975 383.598 335.637 384.224 335.314C384.849 335.637 387.523 336.975 389.049 336.975C390.793 336.975 396.5 337.725 399.231 337.725C401.961 337.725 403.971 336.975 401.221 335.238C398.842 333.729 393.855 330.16 392.585 329.249C389.656 331.925 383.863 331.261 383.863 331.261C382.69 331.084 381.528 330.837 380.384 330.521C378.649 330.017 376.166 329.03 376.166 329.03C376.166 329.03 369.956 333.501 367.226 335.238C364.496 336.975 366.487 337.725 369.217 337.725C371.947 337.725 377.654 336.975 379.389 336.975Z" fill="#1ACFD3" stroke="#263238" stroke-width="0.994239" stroke-linecap="round" stroke-linejoin="round"/>
<path d="M383.861 329.068V285.727" stroke="white" stroke-width="0.994239" stroke-linecap="round" stroke-linejoin="round"/>
<path d="M384.222 335.267L383.861 331.214V329.068" stroke="#263238" stroke-width="0.994239" stroke-linecap="round" stroke-linejoin="round"/>
<path d="M380.385 284.236H387.58" stroke="white" stroke-width="0.994239" stroke-linecap="round" stroke-linejoin="round"/>
<path d="M370.979 193.917C370.979 193.917 365.822 197.012 366.59 199.727C367.358 202.441 369.69 202.964 369.178 204.473C368.666 205.982 366.874 206.931 368.912 207.881C370.073 208.401 371.288 208.793 372.534 209.048C372.534 209.048 374.43 215.636 377.691 216.794C380.952 217.952 386.602 217.183 390.603 216.67C391.954 216.538 393.233 215.997 394.269 215.118C395.306 214.24 396.051 213.066 396.404 211.753C396.793 210.339 394.726 212.019 393.693 210.462C392.66 208.906 394.214 204.909 395.371 201.416C396.528 197.923 393.048 191.336 388.536 189.143C384.023 186.95 375.406 188.099 370.979 193.917Z" fill="#263238" stroke="#263238" stroke-width="0.994239" stroke-linecap="round" stroke-linejoin="round"/>
<path d="M379.643 216.423C378.987 218.59 378.542 220.815 378.315 223.068C378.145 225.915 380.467 229.038 382.951 228.868C385.435 228.697 387.577 223.732 387.909 221.274C388.241 218.815 387.084 212.161 387.084 212.161C387.084 212.161 383.292 212.332 381.785 213.651C380.9 214.429 380.173 215.37 379.643 216.423Z" fill="white" stroke="#263238" stroke-width="0.994239" stroke-linecap="round" stroke-linejoin="round"/>
<path d="M376.277 197.534C376.277 197.534 376.4 201.407 380.277 205.128C382.608 207.385 385.372 209.145 388.402 210.301C388.334 211.15 388.116 211.979 387.757 212.75C387.588 213.073 387.326 213.336 387.004 213.506C386.682 213.675 386.317 213.743 385.956 213.7H384.657C384.657 213.7 382.761 218.151 380.467 218.797C378.173 219.442 372.532 218.996 371.755 213.31C370.977 207.624 370.854 202.973 371.499 201.806C372.143 200.638 376.277 197.534 376.277 197.534Z" fill="white" stroke="#263238" stroke-width="0.994239" stroke-linecap="round" stroke-linejoin="round"/>
<path d="M416.843 247.558C417.431 246.371 417.789 245.082 417.895 243.761C417.895 242.034 414.691 239.556 414.103 238.939C413.516 238.322 412.928 238.389 412.805 239.252C412.803 239.737 412.901 240.217 413.091 240.663C413.282 241.109 413.562 241.511 413.914 241.844C414.394 242.223 414.743 242.745 414.909 243.334C414.966 243.761 413.848 245.859 414.407 247.216C414.966 248.574 416.54 248.982 416.843 247.558Z" fill="white" stroke="#263238" stroke-width="0.994239" stroke-linecap="round" stroke-linejoin="round"/>
<path d="M288.455 237.866C288.455 237.866 302.41 242.337 310.799 252.779C319.189 263.22 324.697 261.72 335.125 258.246C345.553 254.772 349.525 242.337 363.925 252.779C378.325 263.22 381.302 267.188 393.219 261.227C405.135 255.266 411.581 240.847 422.512 245.811C433.442 250.776 428.465 276.186 429.461 288.526C430.456 300.866 428.958 331.783 431.442 335.76C433.926 339.737 459.247 336.709 459.247 336.709" stroke="#263238" stroke-width="2.98272" stroke-linecap="round" stroke-linejoin="round"/>
<path d="M314.593 221.274C314.593 221.274 311.816 216.737 307.72 217.923C303.388 219.176 301.151 225.375 300.136 229.238C299.122 233.102 298.439 237.278 296.581 240.876C296.581 240.876 288.372 240.733 283.793 239.404C280.299 238.314 276.863 237.047 273.497 235.608C273.497 235.608 271.876 233.339 270.729 232.893C269.582 232.447 266.606 231.573 266.387 232.257C266.169 232.94 269.838 235.19 269.838 235.19C269.838 235.19 263.013 236.139 262.33 236.87C261.648 237.601 267.155 239.784 267.155 239.784C267.155 239.784 269.213 240.449 274.218 239.253C274.218 239.253 292.581 250.928 296.24 252.266C299.899 253.605 301.928 254.032 304.421 249.21C306.914 244.388 315.191 232.428 316.508 227.615" fill="#1ACFD3"/>
<path d="M314.593 221.274C314.593 221.274 311.816 216.737 307.72 217.923C303.388 219.176 301.151 225.375 300.136 229.238C299.122 233.102 298.439 237.278 296.581 240.876C296.581 240.876 288.372 240.733 283.793 239.404C280.299 238.314 276.863 237.047 273.497 235.608C273.497 235.608 271.876 233.339 270.729 232.893C269.582 232.447 266.606 231.573 266.387 232.257C266.169 232.94 269.838 235.19 269.838 235.19C269.838 235.19 263.013 236.139 262.33 236.87C261.648 237.601 267.155 239.784 267.155 239.784C267.155 239.784 269.213 240.449 274.218 239.253C274.218 239.253 292.581 250.928 296.24 252.266C299.899 253.605 301.928 254.032 304.421 249.21C306.914 244.388 315.191 232.428 316.508 227.615" stroke="#263238" stroke-width="0.994239" stroke-linecap="round" stroke-linejoin="round"/>
<path d="M278.265 237.544C275.582 236.537 273.525 235.645 273.525 235.645C273.525 235.645 271.904 233.376 270.757 232.93C269.61 232.484 266.633 231.611 266.415 232.294C266.197 232.978 269.866 235.227 269.866 235.227C269.866 235.227 263.04 236.177 262.357 236.908C261.675 237.638 267.183 239.822 267.183 239.822C267.183 239.822 269.24 240.486 274.245 239.29L276.814 240.913L278.265 237.544Z" fill="white" stroke="#263238" stroke-width="0.994239" stroke-linecap="round" stroke-linejoin="round"/>
<path d="M349.043 249.304C348.454 248.117 348.097 246.829 347.99 245.508C347.99 243.78 351.204 241.312 351.782 240.695C352.361 240.078 352.948 240.144 353.072 241.008C353.073 241.493 352.976 241.973 352.785 242.419C352.594 242.865 352.314 243.266 351.962 243.6C351.482 243.979 351.134 244.5 350.967 245.09C350.91 245.508 352.029 247.615 351.469 248.972C350.91 250.33 349.346 250.719 349.043 249.304Z" fill="white" stroke="#263238" stroke-width="0.994239" stroke-linecap="round" stroke-linejoin="round"/>
<path d="M351.251 244.093C351.251 244.093 348.606 248.982 350.142 250.738C351.677 252.494 353.166 246.789 353.45 245.213C353.734 243.637 352.227 242.052 351.251 244.093Z" fill="white" stroke="#263238" stroke-width="0.994239" stroke-linecap="round" stroke-linejoin="round"/>
<path d="M353.432 245.85C353.432 245.85 350.787 250.738 352.323 252.494C353.859 254.25 355.347 248.546 355.632 246.97C355.916 245.394 354.409 243.752 353.432 245.85Z" fill="white" stroke="#263238" stroke-width="0.994239" stroke-linecap="round" stroke-linejoin="round"/>
<path d="M355.831 246.257C355.831 246.257 353.186 251.146 354.722 252.902C356.257 254.658 357.746 248.953 358.03 247.377C358.315 245.802 356.807 244.207 355.831 246.257Z" fill="white" stroke="#263238" stroke-width="0.994239" stroke-linecap="round" stroke-linejoin="round"/>
<path d="M358.902 246.296C358.902 246.296 356.437 250.093 357.783 251.526C359.129 252.959 360.58 248.45 360.864 247.15C361.148 245.85 359.812 244.587 358.902 246.296Z" fill="white" stroke="#263238" stroke-width="0.994239" stroke-linecap="round" stroke-linejoin="round"/>
<path d="M415.08 244.283C415.08 244.283 417.725 249.172 416.189 250.928C414.654 252.684 413.165 246.97 412.881 245.394C412.596 243.818 414.104 242.233 415.08 244.283Z" fill="white" stroke="#263238" stroke-width="0.994239" stroke-linecap="round" stroke-linejoin="round"/>
<path d="M412.902 245.992C412.902 245.992 415.547 250.881 414.012 252.637C412.476 254.393 410.987 248.678 410.703 247.103C410.419 245.527 411.926 243.951 412.902 245.992Z" fill="white" stroke="#263238" stroke-width="0.994239" stroke-linecap="round" stroke-linejoin="round"/>
<path d="M410.48 246.448C410.48 246.448 413.125 251.336 411.59 253.092C410.054 254.848 408.566 249.143 408.291 247.558C408.016 245.973 409.532 244.397 410.48 246.448Z" fill="white" stroke="#263238" stroke-width="0.994239" stroke-linecap="round" stroke-linejoin="round"/>
<path d="M407.431 246.485C407.431 246.485 409.896 250.33 408.55 251.715C407.204 253.101 405.753 248.64 405.478 247.34C405.203 246.039 406.521 244.777 407.431 246.485Z" fill="white" stroke="#263238" stroke-width="0.994239" stroke-linecap="round" stroke-linejoin="round"/>
<path d="M81.2613 300.572V305.964C79.3927 308.009 78.0489 310.478 77.346 313.159C76.1989 317.563 72.606 336.52 73.554 337.013C74.502 337.507 83.4227 339.548 86.2667 339.12C89.5278 338.627 92.3055 338.798 90.6654 336.994C89.0254 335.191 80.4081 330.15 80.4081 330.15C80.4081 330.15 89.8881 316.424 91.9926 311.356C94.0972 306.287 94.4385 298.446 94.4385 298.446L81.7163 297.962L81.2613 300.572Z" fill="white" stroke="#263238" stroke-width="0.994239" stroke-linecap="round" stroke-linejoin="round"/>
<path d="M86.2685 339.121C89.5296 338.627 92.3072 338.798 90.6672 336.994C89.0271 335.191 80.4098 330.15 80.4098 330.15L80.0875 332.106L73.8781 331.346C73.4231 334.517 73.224 336.842 73.5558 337.042C74.5701 337.497 83.4245 339.548 86.2685 339.121Z" fill="#263238" stroke="#263238" stroke-width="0.994239" stroke-linecap="round" stroke-linejoin="round"/>
<path d="M112.431 303.363L113.9 305.983C113.291 307.159 112.933 308.449 112.848 309.771C112.763 311.093 112.954 312.418 113.407 313.662C114.877 318.237 118.309 335.067 118.309 336.045C118.309 337.023 120.423 337.678 122.101 337.678C123.779 337.678 128.424 338 129.078 338C129.732 338 134.463 338.817 136.093 337.839C137.724 336.861 134.017 334.896 131.571 333.757C129.125 332.618 123.741 329.676 123.741 329.676C123.741 329.676 125.039 316.272 125.039 310.387C125.039 304.502 126.348 302.547 124.556 298.949C122.764 295.352 111.502 300.591 111.502 300.591L112.431 303.363Z" fill="white" stroke="#263238" stroke-width="0.994239" stroke-linecap="round" stroke-linejoin="round"/>
<path d="M131.522 333.757C129.076 332.609 123.691 329.676 123.691 329.676L123.037 332.125L117.795 333.074C118.108 334.707 118.307 335.827 118.307 336.055C118.307 337.004 120.421 337.687 122.099 337.687C123.777 337.687 128.422 338.01 129.076 338.01C129.73 338.01 134.461 338.826 136.091 337.849C137.722 336.871 133.968 334.897 131.522 333.757Z" fill="#263238" stroke="#263238" stroke-width="0.994239" stroke-linecap="round" stroke-linejoin="round"/>
<path d="M103.646 194.592C102.366 192.402 100.904 190.326 99.2753 188.384C97.0286 185.849 89.9849 185.992 86.8944 189.333C83.804 192.674 84.7804 198.635 85.9464 200.325C87.1125 202.014 89.4635 209.912 89.4635 209.912L90.0228 215.55L103.115 220.202L100.441 211.042C100.441 211.042 105.513 210.092 105.93 208.507C106.347 206.922 105.087 201.597 105.087 201.597C105.087 201.597 106.774 200.467 106.632 199.48C106.49 198.493 103.646 194.592 103.646 194.592Z" fill="white" stroke="#263238" stroke-width="0.994239" stroke-linecap="round" stroke-linejoin="round"/>
<path d="M88.5791 200.666C88.5791 200.666 90.8164 202.565 92.0393 200.391C93.2622 198.217 94.1913 196.091 94.1913 194.25C94.1913 192.408 89.5935 190.88 92.6555 189.646C95.7175 188.412 97.9264 191.155 99.2915 188.402C100.657 185.65 99.4147 185.355 92.0583 185.355C84.7018 185.355 81.0235 189.038 82.5783 193.642C83.8217 197.042 85.3602 200.326 87.1761 203.457L88.5791 200.666Z" fill="#263238" stroke="#263238" stroke-width="0.994239" stroke-linecap="round" stroke-linejoin="round"/>
<path d="M104.06 197.847C104.06 198.543 103.853 199.224 103.467 199.803C103.08 200.382 102.531 200.834 101.888 201.1C101.246 201.367 100.539 201.437 99.8563 201.301C99.1741 201.165 98.5474 200.829 98.0555 200.337C97.5636 199.844 97.2287 199.217 97.093 198.534C96.9573 197.851 97.0269 197.143 97.2931 196.499C97.5593 195.856 98.0101 195.306 98.5885 194.919C99.1669 194.532 99.8469 194.325 100.542 194.325C101.475 194.325 102.37 194.696 103.029 195.357C103.689 196.017 104.06 196.913 104.06 197.847Z" stroke="#263238" stroke-width="0.994239" stroke-linecap="round" stroke-linejoin="round"/>
<path d="M103.549 194.724C103.958 194.556 104.396 194.469 104.838 194.468C105.57 194.469 106.282 194.714 106.86 195.163C107.439 195.613 107.852 196.242 108.035 196.952C108.219 197.662 108.161 198.412 107.873 199.086C107.584 199.76 107.08 200.319 106.44 200.676" stroke="#263238" stroke-width="0.994239" stroke-linecap="round" stroke-linejoin="round"/>
<path d="M97.0268 197.847L88.5801 200.666" stroke="#263238" stroke-width="0.994239" stroke-linecap="round" stroke-linejoin="round"/>
<path d="M91.0056 202.498C91.0056 202.498 89.3182 198.976 87.6307 199.65C85.9433 200.324 86.787 205.858 88.4745 206.418C89.0415 206.546 89.6309 206.536 90.1933 206.389C90.7557 206.242 91.2748 205.962 91.7071 205.573C91.7071 205.573 93.1197 208.535 94.8071 209.37" fill="white"/>
<path d="M91.0056 202.498C91.0056 202.498 89.3182 198.976 87.6307 199.65C85.9433 200.324 86.787 205.858 88.4745 206.418C89.0415 206.546 89.6309 206.536 90.1933 206.389C90.7557 206.242 91.2748 205.962 91.7071 205.573C91.7071 205.573 93.1197 208.535 94.8071 209.37" stroke="#263238" stroke-width="0.994239" stroke-linecap="round" stroke-linejoin="round"/>
<path d="M79.936 265.783L78.8837 279.281L75.7363 299.263C75.7363 299.263 83.0928 305.043 89.9563 305.043C96.8198 305.043 98.7064 304.17 98.7064 304.17L102.555 283.667L106.404 305.224C106.404 305.224 113.988 303.999 119.013 302.765C122.506 301.792 125.817 300.253 128.815 298.209L118.662 271.745L116.462 258.095C116.462 258.095 105.086 259.148 98.2513 259.5C91.4162 259.851 82.3249 258.095 82.3249 258.095L79.936 265.783Z" fill="#1ACFD3" stroke="#263238" stroke-width="0.994239" stroke-linecap="round" stroke-linejoin="round"/>
<path d="M87.1486 211.848C87.1486 211.848 103.265 217.477 108.242 222.945C110.991 225.982 114.072 246.77 115.181 251.849C116.29 256.927 118.224 267.036 118.224 267.036C118.224 267.036 108.393 271.479 100.79 271.64C93.1874 271.801 78.5977 268.308 78.5977 268.308C78.5977 268.308 80.3325 245.783 80.3325 235.313C80.3325 224.843 80.4937 218.009 82.2285 214.677C82.238 214.705 85.0915 211.525 87.1486 211.848Z" fill="#263238" stroke="#263238" stroke-width="0.994239" stroke-linecap="round" stroke-linejoin="round"/>
<path d="M82.913 269.94C82.913 269.94 83.7851 284.663 82.913 290.102C82.3005 293.611 81.2429 297.028 79.7656 300.268" stroke="#263238" stroke-width="0.994239" stroke-linecap="round" stroke-linejoin="round"/>
<path d="M83.2617 276.955C84.578 276.503 85.7542 275.715 86.6749 274.67C87.5956 273.625 88.2293 272.358 88.5136 270.994" stroke="#263238" stroke-width="0.994239" stroke-linecap="round" stroke-linejoin="round"/>
<path d="M76.6074 296.415C76.6074 296.415 85.3669 303.952 99.0181 301.161" stroke="#263238" stroke-width="0.994239" stroke-linecap="round" stroke-linejoin="round"/>
<path d="M106.021 300.791C106.021 300.791 120.374 299.215 126.678 295.01" stroke="#263238" stroke-width="0.994239" stroke-linecap="round" stroke-linejoin="round"/>
<path d="M170.221 205.032C170.221 205.032 168.836 206.058 164.011 209.589C159.186 213.12 162.987 218.454 162.987 218.454C162.987 218.454 159.537 218.996 154.929 223.846C150.322 228.697 156.986 237.021 163.215 238.322C169.443 239.622 176.724 231.905 178.904 224.748C181.085 217.591 178.203 206.798 176.752 204.567C175.302 202.337 170.221 205.032 170.221 205.032Z" fill="#263238" stroke="#263238" stroke-width="0.994239" stroke-linecap="round" stroke-linejoin="round"/>
<path d="M188.5 204.083C188.5 204.083 190.898 200.372 188.727 194.99C186.556 189.608 180.072 187.149 173.758 191.051C171.654 192.304 170.022 194.218 169.115 196.496C168.208 198.774 168.077 201.287 168.743 203.647C169.359 206.134 172.469 209.959 173.123 210.016C173.777 210.073 179.456 212.142 183.333 210.329C187.21 208.516 188.5 204.083 188.5 204.083Z" fill="#263238" stroke="#263238" stroke-width="0.994239" stroke-linecap="round" stroke-linejoin="round"/>
<path d="M160.6 329.381C160.6 329.381 165.103 336.396 172.924 337.592C180.745 338.788 173.71 331.764 172.393 330.701C171.075 329.638 161.661 327.341 160.6 329.381Z" fill="#737373" stroke="#263238" stroke-width="0.994239" stroke-linecap="round" stroke-linejoin="round"/>
<path d="M202.263 331.185C202.263 331.185 210.862 333.301 210.198 335.162C209.534 337.022 202.529 336.88 198.433 335.817C194.338 334.754 190.489 333.169 191.02 331.45C191.551 329.732 202.263 331.185 202.263 331.185Z" fill="#737373" stroke="#263238" stroke-width="0.994239" stroke-linecap="round" stroke-linejoin="round"/>
<path d="M177.815 218.037C177.815 218.037 166.306 219.727 164.202 223.799C162.097 227.871 165.064 250.055 165.064 250.055C165.064 250.055 160.154 260.904 160.087 267.89C160.021 274.877 163.131 287.169 162.884 290.235C162.638 293.301 159.49 328.204 159.49 329.154C159.49 330.103 166.126 332.229 175.692 333.368C185.257 334.507 203.553 331.099 203.553 331.099C203.553 331.099 203.193 310.501 204.151 298.218C205.108 285.935 203.743 274.896 201.307 270.311C198.87 265.726 187.523 249.219 187.523 249.219C187.523 249.219 193.021 239.233 193.362 234.867C193.704 230.5 191.931 228.222 187.779 223.201C186.545 221.72 185.028 220.5 183.317 219.613C181.606 218.727 179.735 218.191 177.815 218.037Z" fill="#1ACFD3" stroke="#263238" stroke-width="0.994239" stroke-linecap="round" stroke-linejoin="round"/>
<path d="M187.55 249.229C187.55 249.229 193.048 239.243 193.389 234.877C193.73 230.51 191.958 228.232 187.805 223.211C187.606 222.964 187.398 222.745 187.189 222.518L187.038 222.66C182.772 229.637 168.665 241.559 164.466 245.033C164.788 248.004 165.063 250.055 165.063 250.055C165.063 250.055 160.152 260.904 160.086 267.891C160.165 271.074 160.481 274.247 161.034 277.383C170.997 271.688 184.326 261.028 191.541 255.086C189.284 251.744 187.55 249.229 187.55 249.229Z" fill="#737373" stroke="#263238" stroke-width="0.994239" stroke-linecap="round" stroke-linejoin="round"/>
<path d="M175.691 209.892C176.009 212.497 176.184 215.118 176.213 217.742C176.061 219.688 176.687 224.131 180.005 225.526C183.323 226.921 185.408 224.976 185.399 223.02C185.279 221.405 184.96 219.811 184.451 218.274L184.546 212.911C184.546 212.911 178.82 209.323 175.691 209.892Z" fill="white" stroke="#263238" stroke-width="0.994239" stroke-linecap="round" stroke-linejoin="round"/>
<path d="M172.715 206.409C172.715 206.409 170.279 204.264 170.203 207.358C170.127 210.453 172.971 211.478 173.597 211.687C174.125 211.759 174.66 211.626 175.094 211.316C175.094 211.316 179.512 215.113 183.058 215.36C186.603 215.607 188.044 213.965 188.878 207.52C189.713 201.074 183.067 194.534 183.067 194.534C183.067 194.534 177.379 205.033 172.715 206.409Z" fill="white" stroke="#263238" stroke-width="0.994239" stroke-linecap="round" stroke-linejoin="round"/>
<path d="M118.497 266.903C118.465 265.803 118.645 264.707 119.028 263.675C119.616 262.385 122.82 261.644 123.531 261.397C124.242 261.151 124.602 261.397 124.394 262.071C124.228 262.434 123.99 262.758 123.695 263.026C123.4 263.294 123.054 263.498 122.678 263.628C122.188 263.746 121.747 264.015 121.417 264.397C121.237 264.701 121.351 266.647 120.469 267.472C119.587 268.298 118.203 268.07 118.497 266.903Z" fill="white" stroke="#263238" stroke-width="0.994239" stroke-linecap="round" stroke-linejoin="round"/>
<path d="M191.153 238.36C191.153 238.36 179.777 236.869 174.762 244.824C169.747 252.779 160.372 280.61 142.995 285.09C125.618 289.571 120.65 253.766 110.222 254.762C100.287 255.712 93.348 254.762 87.385 265.697C84.1998 271.554 68.2734 335.504 60.7463 336.159C36.7713 338.256 21.3379 336.889 21.3379 336.889" stroke="#263238" stroke-width="2.98272" stroke-linecap="round" stroke-linejoin="round"/>
<path d="M87.8876 212.304C87.8876 212.304 85.2616 211.25 81.754 213.348C78.2464 215.446 68.8043 238.417 69.5058 240.875C70.2074 243.334 80.1803 247.89 85.783 249.466C91.3857 251.042 101.539 252.978 101.539 252.978C101.539 252.978 104.686 257.886 105.738 258.056C107.269 258.036 108.793 257.861 110.289 257.534C110.289 257.534 112.185 259.11 112.915 257.354C113.645 255.598 112.213 253.329 110.64 251.573C109.066 249.817 102.411 248.944 102.411 248.944L84.3705 236.49L91.9545 222.47" fill="#263238"/>
<path d="M87.8876 212.304C87.8876 212.304 85.2616 211.25 81.754 213.348C78.2464 215.446 68.8043 238.417 69.5058 240.875C70.2074 243.334 80.1803 247.89 85.783 249.466C91.3857 251.042 101.539 252.978 101.539 252.978C101.539 252.978 104.686 257.886 105.738 258.056C107.269 258.036 108.793 257.861 110.289 257.534C110.289 257.534 112.185 259.11 112.915 257.354C113.645 255.598 112.213 253.329 110.64 251.573C109.066 249.817 102.411 248.944 102.411 248.944L84.3705 236.49L91.9545 222.47" stroke="#263238" stroke-width="0.994239" stroke-linecap="round" stroke-linejoin="round"/>
<path d="M105.74 258.047C107.27 258.026 108.795 257.851 110.29 257.525C110.29 257.525 112.186 259.1 112.916 257.344C113.646 255.588 112.215 253.319 110.641 251.563C109.067 249.807 102.412 248.934 102.412 248.934L84.3718 236.49L87.0641 231.468C80.3238 227.263 75.8493 227.576 73.4319 228.421C71.0145 234.231 69.1754 239.736 69.4977 240.866C70.1992 243.324 80.1722 247.88 85.7748 249.456C91.3775 251.032 101.531 252.968 101.531 252.968C101.531 252.968 104.687 257.876 105.74 258.047Z" fill="white" stroke="#263238" stroke-width="0.994239" stroke-linecap="round" stroke-linejoin="round"/>
<path d="M218.505 238.749C217.737 230.463 213.765 223.657 209.025 220.951L208.873 219.262L196.492 220.41C189.524 221.056 184.718 230.633 185.751 241.796C186.784 252.959 193.269 261.474 200.237 260.781L212.617 259.632L212.456 257.943C216.627 254.45 219.272 247.036 218.505 238.749Z" fill="#263238" stroke="#263238" stroke-width="0.994239" stroke-linecap="round" stroke-linejoin="round"/>
<path d="M224.106 238.256C223.301 229.551 219.366 222.384 214.352 219.537L214.181 217.762L208.882 218.255C201.563 218.939 196.51 228.991 197.591 240.724C198.672 252.456 205.497 261.407 212.816 260.724L218.115 260.23L217.954 258.455C222.334 254.715 224.912 246.931 224.106 238.256Z" fill="white" stroke="#263238" stroke-width="0.994239" stroke-linecap="round" stroke-linejoin="round"/>
<path d="M229.415 237.733C230.505 249.466 225.452 259.518 218.124 260.202C210.796 260.885 203.98 251.924 202.871 240.201C201.762 228.478 206.834 218.369 214.152 217.733C221.471 217.097 228.315 226.01 229.415 237.733Z" fill="white" stroke="#263238" stroke-width="0.994239" stroke-linecap="round" stroke-linejoin="round"/>
<path d="M235.101 230.88L214.539 232.779C214.251 232.806 213.96 232.776 213.683 232.691C213.406 232.606 213.149 232.466 212.926 232.281C212.704 232.096 212.519 231.868 212.385 231.612C212.25 231.355 212.167 231.074 212.141 230.785C212.113 230.497 212.143 230.206 212.228 229.928C212.314 229.651 212.453 229.394 212.638 229.171C212.823 228.947 213.05 228.763 213.306 228.628C213.563 228.493 213.843 228.41 214.132 228.384L234.694 226.485C234.982 226.458 235.273 226.488 235.55 226.573C235.826 226.659 236.084 226.798 236.306 226.983C236.529 227.168 236.713 227.396 236.848 227.653C236.983 227.909 237.066 228.19 237.092 228.479C237.119 228.768 237.09 229.059 237.004 229.336C236.919 229.613 236.78 229.871 236.595 230.094C236.41 230.317 236.183 230.501 235.926 230.636C235.67 230.771 235.39 230.854 235.101 230.88Z" fill="#737373" stroke="#263238" stroke-width="0.994239" stroke-linecap="round" stroke-linejoin="round"/>
<path d="M236.629 247.197L216.067 249.096C215.778 249.123 215.487 249.093 215.211 249.008C214.934 248.922 214.677 248.783 214.454 248.598C214.231 248.413 214.047 248.185 213.912 247.928C213.777 247.672 213.694 247.391 213.668 247.102C213.641 246.814 213.67 246.522 213.756 246.245C213.841 245.968 213.98 245.71 214.165 245.487C214.35 245.264 214.577 245.08 214.834 244.945C215.09 244.81 215.37 244.727 215.659 244.701L236.221 242.802C236.802 242.752 237.38 242.933 237.829 243.306C238.278 243.679 238.562 244.214 238.619 244.796C238.647 245.084 238.617 245.376 238.532 245.653C238.446 245.93 238.307 246.187 238.122 246.41C237.937 246.634 237.71 246.818 237.454 246.953C237.197 247.088 236.917 247.171 236.629 247.197Z" fill="#737373" stroke="#263238" stroke-width="0.994239" stroke-linecap="round" stroke-linejoin="round"/>
<path d="M170.705 219.584C170.705 219.584 165.757 220.533 163.415 223.381C161.074 226.229 156.267 248.203 157.377 250.728C158.486 253.253 176.261 256.423 181.75 256.879C186.163 257.054 190.584 256.857 194.965 256.291C194.965 256.291 199.705 256.167 201.004 255.949C202.302 255.731 204.691 254.449 204.729 253.965C204.767 253.481 204.53 252.323 202.757 252.18C200.985 252.038 197.183 250.766 196.7 250.728C197.839 250.428 198.994 250.194 200.16 250.026C200.16 250.026 200.406 249.076 198.453 249.076C196.501 249.076 194.728 248.944 193.988 250.026C193.46 250.869 193.009 251.758 192.642 252.684C192.642 252.684 181.693 253.452 175.749 250.548C169.805 247.643 167.928 246.675 167.928 246.675L172.194 229.589" fill="#1ACFD3"/>
<path d="M170.705 219.584C170.705 219.584 165.757 220.533 163.415 223.381C161.074 226.229 156.267 248.203 157.377 250.728C158.486 253.253 176.261 256.423 181.75 256.879C186.163 257.054 190.584 256.857 194.965 256.291C194.965 256.291 199.705 256.167 201.004 255.949C202.302 255.731 204.691 254.449 204.729 253.965C204.767 253.481 204.53 252.323 202.757 252.18C200.985 252.038 197.183 250.766 196.7 250.728C197.839 250.428 198.994 250.194 200.16 250.026C200.16 250.026 200.406 249.076 198.453 249.076C196.501 249.076 194.728 248.944 193.988 250.026C193.46 250.869 193.009 251.758 192.642 252.684C192.642 252.684 181.693 253.452 175.749 250.548C169.805 247.643 167.928 246.675 167.928 246.675L172.194 229.589" stroke="#263238" stroke-width="0.994239" stroke-linecap="round" stroke-linejoin="round"/>
<path d="M200.975 255.978C202.292 255.759 204.662 254.478 204.7 253.994C204.738 253.51 204.501 252.352 202.728 252.209C200.956 252.067 197.154 250.795 196.671 250.757C197.81 250.457 198.965 250.222 200.131 250.054C200.131 250.054 200.377 249.105 198.424 249.105C196.472 249.105 194.699 248.972 193.959 250.054C193.431 250.897 192.98 251.787 192.613 252.712C192.613 252.712 181.664 253.481 175.72 250.577C169.776 247.672 167.899 246.704 167.899 246.704L170.496 236.262C167.115 234.869 163.547 233.983 159.907 233.633C158.134 240.79 156.684 249.219 157.348 250.719C158.447 253.244 176.232 256.414 181.721 256.87C186.134 257.045 190.555 256.848 194.936 256.281C194.936 256.281 199.685 256.196 200.975 255.978Z" fill="white" stroke="#263238" stroke-width="0.994239" stroke-linecap="round" stroke-linejoin="round"/>
<path d="M120.906 265.062C120.906 265.062 117.247 267.805 117.806 269.618C118.366 271.431 121.418 267.72 122.176 266.628C122.935 265.536 122.338 263.885 120.906 265.062Z" fill="white" stroke="#263238" stroke-width="0.994239" stroke-linecap="round" stroke-linejoin="round"/>
<path d="M121.627 267.52C121.627 267.52 117.977 270.263 118.527 272.076C119.077 273.889 122.148 270.178 122.897 269.086C123.646 267.995 123.059 266.324 121.627 267.52Z" fill="white" stroke="#263238" stroke-width="0.994239" stroke-linecap="round" stroke-linejoin="round"/>
<path d="M123.362 269.115C123.362 269.115 119.712 271.858 120.271 273.671C120.831 275.484 123.883 271.773 124.641 270.681C125.4 269.589 124.803 267.919 123.362 269.115Z" fill="white" stroke="#263238" stroke-width="0.994239" stroke-linecap="round" stroke-linejoin="round"/>
<path d="M124.794 270.406C124.794 270.406 121.637 272.437 122.168 273.937C122.698 275.437 125.305 272.599 125.96 271.725C126.614 270.852 126.083 269.447 124.794 270.406Z" fill="white" stroke="#263238" stroke-width="0.994239" stroke-linecap="round" stroke-linejoin="round"/>
</svg>
