<svg width="414" height="414" viewBox="0 0 414 414" fill="none" xmlns="http://www.w3.org/2000/svg">
<path d="M358.172 122.917C358.172 122.917 336.105 80.8542 287.386 74.6193C238.666 68.3845 204.652 98.7638 168.8 114.363C150.029 122.519 128.584 119.331 108.654 123.306C44.8978 135.933 20.8858 215.04 47.4563 260.033C70.4416 298.949 110.889 319.235 172.484 323.914C234.079 328.592 277.284 334.04 332.437 295.869C387.59 257.698 383.914 178.227 358.172 122.917Z" fill="#79DB9A"/>
<path opacity="0.75" d="M358.172 122.917C358.172 122.917 336.105 80.8542 287.386 74.6193C238.666 68.3845 204.652 98.7638 168.8 114.363C150.029 122.519 128.584 119.331 108.654 123.306C44.8978 135.933 20.8858 215.04 47.4563 260.033C70.4416 298.949 110.889 319.235 172.484 323.914C234.079 328.592 277.284 334.04 332.437 295.869C387.59 257.698 383.914 178.227 358.172 122.917Z" fill="white"/>
<path d="M109.219 175.486C109.219 175.486 109.219 171.073 103.034 164.888C96.8492 158.703 92.8748 155.167 92.8748 155.167C92.8748 155.167 89.778 165.327 95.5244 171.512C99.7497 175.863 104.331 179.854 109.219 183.443V175.486Z" fill="#79DB9A"/>
<path d="M100.245 203.083C100.245 203.083 100.245 198.662 94.0597 192.477C87.8745 186.291 83.9001 182.756 83.9001 182.756C83.9001 182.756 80.8034 192.924 86.5497 199.109C90.772 203.461 95.3533 207.449 100.245 211.032V203.083Z" fill="#79DB9A"/>
<path d="M108.83 182.988C108.83 182.988 109.294 178.599 116.1 173.101C122.906 167.604 127.236 164.507 127.236 164.507C127.236 164.507 129.232 174.94 122.873 180.479C118.205 184.362 113.219 187.846 107.969 190.895L108.83 182.988Z" fill="#79DB9A"/>
<path d="M97.9812 215.603C97.9812 215.603 98.9086 211.281 106.261 206.495C113.614 201.709 118.234 199.117 118.234 199.117C118.234 199.117 119.128 209.707 112.215 214.551C107.173 217.922 101.858 220.863 96.3252 223.344L97.9812 215.603Z" fill="#79DB9A"/>
<path d="M100.03 251.132C100.03 251.132 100.03 246.711 106.215 240.525C112.4 234.34 116.375 230.805 116.375 230.805C116.375 230.805 119.463 240.964 113.725 247.149C109.5 251.5 104.919 255.491 100.03 259.081V251.132Z" fill="#79DB9A"/>
<path d="M99.9192 259.801C99.9192 259.801 100.549 255.429 95.3073 248.424C90.066 241.419 86.6298 237.362 86.6298 237.362C86.6298 237.362 82.1255 246.975 86.9279 253.922C90.4915 258.833 94.4605 263.436 98.7931 267.684L99.9192 259.801Z" fill="#79DB9A"/>
<path d="M93.8174 285.502C93.8174 285.502 93.8174 281.081 100.003 274.896C106.188 268.71 110.17 265.175 110.17 265.175C110.17 265.175 113.259 275.343 107.521 281.528C103.294 285.878 98.7105 289.867 93.8174 293.451V285.502Z" fill="#79DB9A"/>
<path d="M97.9509 308.844C97.9509 308.844 96.8331 304.572 101.263 297.02C105.693 289.469 108.632 285.039 108.632 285.039C108.632 285.039 114.196 294.089 110.205 301.525C107.222 306.805 103.801 311.827 99.9795 316.536L97.9509 308.844Z" fill="#79DB9A"/>
<path d="M109.783 174.36C109.467 178.958 108.9 183.536 108.085 188.072C105.643 200.707 99.532 208.855 97.0811 220.273C94.6302 231.691 101.66 246.38 99.7804 261.035C97.9008 275.691 92.1959 283.839 93.8188 293.617C95.4416 303.396 104.011 329.892 104.011 329.892" stroke="#263238" stroke-width="0.828" stroke-linecap="round" stroke-linejoin="round"/>
<path d="M108.771 185.952L115.437 180.835" stroke="#263238" stroke-width="0.828" stroke-linecap="round" stroke-linejoin="round"/>
<path d="M109.077 180.056L106.287 175.097" stroke="#263238" stroke-width="0.828" stroke-linecap="round" stroke-linejoin="round"/>
<path d="M97.4531 219.743C97.4531 219.743 103.034 215.562 108.772 211.372" stroke="#263238" stroke-width="0.828" stroke-linecap="round" stroke-linejoin="round"/>
<path d="M100.243 211.032C100.243 211.032 95.5898 201.924 90.3071 195.871" stroke="#263238" stroke-width="0.828" stroke-linecap="round" stroke-linejoin="round"/>
<path d="M100.243 257.416C103.428 251.542 107.45 246.162 112.183 241.444" stroke="#263238" stroke-width="0.828" stroke-linecap="round" stroke-linejoin="round"/>
<path d="M99.1571 263.618C97.4649 259.631 95.443 255.793 93.1127 252.142C89.8587 247.34 89.3867 246.719 89.3867 246.719" stroke="#263238" stroke-width="0.828" stroke-linecap="round" stroke-linejoin="round"/>
<path d="M93.8174 293.617C95.2314 290.107 96.9117 286.711 98.8433 283.457C100.776 280.439 102.956 277.587 105.36 274.929" stroke="#263238" stroke-width="0.828" stroke-linecap="round" stroke-linejoin="round"/>
<path d="M99.9703 316.495C99.9703 316.495 99.3162 311.204 101.626 306.708C103.936 302.212 106.594 296.325 107.679 293.998" stroke="#263238" stroke-width="0.828" stroke-linecap="round" stroke-linejoin="round"/>
<path d="M68.7237 234.514C68.7237 234.514 68.2434 231.741 71.4561 227.195C74.6687 222.649 76.7718 219.991 76.7718 219.991C76.7718 219.991 79.8106 226.027 76.8795 230.532C74.6923 233.721 72.2411 236.72 69.5517 239.499L68.7237 234.514Z" fill="#79DB9A"/>
<path d="M77.34 250.883C77.34 250.883 76.8597 248.11 80.0641 243.564C83.2685 239.018 85.3799 236.36 85.3799 236.36C85.3799 236.36 88.4269 242.396 85.4958 246.901C83.3184 250.083 80.8783 253.077 78.2011 255.851L77.34 250.883Z" fill="#79DB9A"/>
<path d="M69.773 239.193C69.773 239.193 69.0029 236.485 64.1426 233.778C59.2822 231.07 56.2269 229.638 56.2269 229.638C56.2269 229.638 56.1027 236.394 60.6981 239.185C64.0592 241.099 67.5738 242.73 71.2054 244.061L69.773 239.193Z" fill="#79DB9A"/>
<path d="M80.1141 258.444C80.1141 258.444 79.0626 255.835 73.9455 253.658C68.8285 251.48 65.6655 250.346 65.6655 250.346C65.6655 250.346 66.2534 257.077 71.1138 259.371C74.6213 260.926 78.2522 262.186 81.9688 263.138L80.1141 258.444Z" fill="#79DB9A"/>
<path d="M82.6917 280.948C82.6917 280.948 82.2114 278.174 77.6657 274.97C73.12 271.766 70.2137 270.002 70.2137 270.002C70.2137 270.002 69.3857 276.709 73.6499 279.938C76.7725 282.208 80.0795 284.213 83.5362 285.933L82.6917 280.948Z" fill="#79DB9A"/>
<path d="M83.7004 286.372C83.7004 286.372 82.8724 283.698 85.3564 278.738C87.8404 273.778 89.5957 270.855 89.5957 270.855C89.5957 270.855 93.4708 276.403 91.2517 281.272C89.5526 284.745 87.5639 288.069 85.3067 291.208L83.7004 286.372Z" fill="#79DB9A"/>
<path d="M91.4595 308.72C91.4595 308.72 91.7824 305.929 96.146 302.468C100.51 299.007 103.275 297.062 103.275 297.062C103.275 297.062 104.492 303.686 100.41 307.205C97.4248 309.647 94.2396 311.836 90.8882 313.746L91.4595 308.72Z" fill="#79DB9A"/>
<path d="M90.3162 301.831C90.3162 301.831 89.8359 299.057 85.2819 295.853C80.7279 292.648 77.8299 290.885 77.8299 290.885C77.8299 290.885 77.0019 297.592 81.2661 300.821C84.3887 303.091 87.6957 305.096 91.1524 306.815L90.3162 301.831Z" fill="#79DB9A"/>
<path d="M90.249 316.883C90.249 316.883 90.4891 314.085 86.937 309.829C83.3849 305.573 81.0085 303.122 81.0085 303.122C81.0085 303.122 78.5245 309.398 81.8365 313.629C84.2833 316.609 86.9754 319.379 89.8847 321.909L90.249 316.883Z" fill="#79DB9A"/>
<path d="M68.2397 233.86C68.9345 236.712 69.7859 239.523 70.79 242.281C73.6963 249.94 78.4159 254.386 81.1814 261.275C83.9469 268.164 81.1814 278.142 83.9221 287.134C86.6627 296.126 91.1505 300.605 91.1919 306.923C91.2333 313.241 88.7079 330.769 88.7079 330.769" stroke="#263238" stroke-width="0.828" stroke-linecap="round" stroke-linejoin="round"/>
<path d="M70.1288 241.022L65.4009 238.538" stroke="#263238" stroke-width="0.828" stroke-linecap="round" stroke-linejoin="round"/>
<path d="M69.3032 237.363L70.5121 233.951" stroke="#263238" stroke-width="0.828" stroke-linecap="round" stroke-linejoin="round"/>
<path d="M80.9023 260.986C80.9023 260.986 76.9444 258.965 72.8955 256.97" stroke="#263238" stroke-width="0.828" stroke-linecap="round" stroke-linejoin="round"/>
<path d="M78.2036 255.852C79.3701 252.169 80.9099 248.615 82.799 245.245" stroke="#263238" stroke-width="0.828" stroke-linecap="round" stroke-linejoin="round"/>
<path d="M83.2352 284.914C80.6023 281.576 77.4979 278.639 74.0195 276.195" stroke="#263238" stroke-width="0.828" stroke-linecap="round" stroke-linejoin="round"/>
<path d="M84.5938 288.682C85.2195 285.999 86.0698 283.373 87.1357 280.832C88.6592 277.462 88.8828 277.023 88.8828 277.023" stroke="#263238" stroke-width="0.828" stroke-linecap="round" stroke-linejoin="round"/>
<path d="M90.9785 311.709C90.9785 311.709 94.1166 307.859 96.0707 306.418C97.249 305.549 98.3564 304.589 99.3827 303.545" stroke="#263238" stroke-width="0.828" stroke-linecap="round" stroke-linejoin="round"/>
<path d="M91.1922 306.923C89.9218 304.886 88.4991 302.949 86.9363 301.127C85.4128 299.425 83.7512 297.852 81.9683 296.424" stroke="#263238" stroke-width="0.828" stroke-linecap="round" stroke-linejoin="round"/>
<path d="M89.8284 321.927C89.6662 319.79 88.9374 317.735 87.717 315.973C85.7712 313.407 83.4776 310.003 82.542 308.662" stroke="#263238" stroke-width="0.828" stroke-linecap="round" stroke-linejoin="round"/>
<path d="M76.1045 327.706H116.569V341.699C116.569 342.468 116.264 343.205 115.72 343.748C115.177 344.292 114.439 344.597 113.671 344.597H79.0025C78.2339 344.597 77.4968 344.292 76.9533 343.748C76.4098 343.205 76.1045 342.468 76.1045 341.699V327.706Z" fill="#263238" stroke="#263238" stroke-width="0.828" stroke-linecap="round" stroke-linejoin="round"/>
<path d="M116.217 332.988H76.1083C75.2672 332.988 74.4606 332.654 73.8659 332.06C73.2711 331.465 72.937 330.658 72.937 329.817C72.9392 328.978 73.2743 328.173 73.8688 327.58C74.4633 326.987 75.2686 326.654 76.1083 326.654H116.217C117.055 326.654 117.86 326.988 118.453 327.581C119.046 328.174 119.38 328.978 119.38 329.817C119.381 330.233 119.3 330.645 119.141 331.03C118.983 331.415 118.75 331.765 118.456 332.059C118.162 332.354 117.813 332.587 117.429 332.747C117.045 332.906 116.633 332.988 116.217 332.988Z" fill="#263238" stroke="#263238" stroke-width="0.828" stroke-linecap="round" stroke-linejoin="round"/>
<path d="M77.6963 333.129H106.825" stroke="white" stroke-width="0.828" stroke-linecap="round" stroke-linejoin="round"/>
<path d="M109.568 333.129H114.362" stroke="white" stroke-width="0.828" stroke-linecap="round" stroke-linejoin="round"/>
<path d="M28.2695 338.039H380.923" stroke="#263238" stroke-width="0.828" stroke-linecap="round" stroke-linejoin="round"/>
<path d="M28.2695 214.668H380.923" stroke="#263238" stroke-width="0.828" stroke-linecap="round" stroke-linejoin="round"/>
<path d="M355.252 214.518V70.1152" stroke="#263238" stroke-width="0.828" stroke-linecap="round" stroke-linejoin="round"/>
<path d="M344.492 214.518V70.1152" stroke="#263238" stroke-width="0.828" stroke-linecap="round" stroke-linejoin="round"/>
<path d="M283.634 214.518V70.1152" stroke="#263238" stroke-width="0.828" stroke-linecap="round" stroke-linejoin="round"/>
<path d="M272.87 214.518V70.1152" stroke="#263238" stroke-width="0.828" stroke-linecap="round" stroke-linejoin="round"/>
<path d="M212.01 214.518V70.1152" stroke="#263238" stroke-width="0.828" stroke-linecap="round" stroke-linejoin="round"/>
<path d="M201.246 214.518V70.1152" stroke="#263238" stroke-width="0.828" stroke-linecap="round" stroke-linejoin="round"/>
<path d="M140.388 214.518V70.1152" stroke="#263238" stroke-width="0.828" stroke-linecap="round" stroke-linejoin="round"/>
<path d="M129.625 214.518V70.1152" stroke="#263238" stroke-width="0.828" stroke-linecap="round" stroke-linejoin="round"/>
<path d="M68.7676 214.518V70.1152" stroke="#263238" stroke-width="0.828" stroke-linecap="round" stroke-linejoin="round"/>
<path d="M58.0034 214.518V70.1152" stroke="#263238" stroke-width="0.828" stroke-linecap="round" stroke-linejoin="round"/>
<path d="M236.73 53.2568H130.489C126.982 53.2568 124.139 56.1002 124.139 59.6076V271.576C124.139 275.083 126.982 277.926 130.489 277.926H236.73C240.238 277.926 243.081 275.083 243.081 271.576V59.6076C243.081 56.1002 240.238 53.2568 236.73 53.2568Z" fill="white" stroke="#263238" stroke-width="0.828" stroke-linecap="round" stroke-linejoin="round"/>
<path d="M237.79 77.9229H129.421V253.252H237.79V77.9229Z" fill="#263238"/>
<mask id="mask0_3872_12763" style="mask-type:luminance" maskUnits="userSpaceOnUse" x="129" y="77" width="109" height="177">
<path d="M237.79 77.9229H129.421V253.252H237.79V77.9229Z" fill="white"/>
</mask>
<g mask="url(#mask0_3872_12763)">
<path opacity="0.3" d="M237.791 194.339L136.775 253.251H237.791V194.339Z" fill="white"/>
<path d="M223.573 141.571H143.646C141.36 141.571 139.506 143.425 139.506 145.711V152.211C139.506 154.498 141.36 156.351 143.646 156.351H223.573C225.86 156.351 227.713 154.498 227.713 152.211V145.711C227.713 143.425 225.86 141.571 223.573 141.571Z" fill="white"/>
<path d="M187.366 144.254H179.848V153.66H187.366V144.254Z" fill="#79DB9A"/>
<path d="M178.291 144.254H170.773V153.66H178.291V144.254Z" fill="#79DB9A"/>
<path d="M169.209 144.254H161.69V153.66H169.209V144.254Z" fill="#79DB9A"/>
<path d="M160.122 144.254H152.604V153.66H160.122V144.254Z" fill="#79DB9A"/>
<path d="M151.042 144.254H147.383C146.135 144.254 144.939 144.749 144.057 145.631C143.175 146.513 142.68 147.71 142.68 148.957C142.68 150.204 143.175 151.401 144.057 152.282C144.939 153.164 146.135 153.66 147.383 153.66H151.084L151.042 144.254Z" fill="#79DB9A"/>
<path d="M196.45 144.254H188.932V153.66H196.45V144.254Z" fill="#79DB9A"/>
<path d="M160.024 129.167H160.496V135.129H164.164V135.551H160.024V129.167Z" fill="white"/>
<path d="M164.621 132.347C164.604 131.689 164.784 131.04 165.138 130.485C165.492 129.929 166.003 129.492 166.607 129.229C167.21 128.965 167.879 128.888 168.527 129.006C169.174 129.124 169.772 129.433 170.244 129.893C170.715 130.352 171.039 130.942 171.174 131.587C171.308 132.232 171.248 132.902 171 133.512C170.752 134.122 170.327 134.644 169.781 135.012C169.235 135.379 168.591 135.576 167.933 135.576C167.5 135.593 167.069 135.522 166.665 135.366C166.261 135.211 165.893 134.975 165.583 134.673C165.273 134.371 165.028 134.009 164.862 133.609C164.697 133.209 164.615 132.78 164.621 132.347ZM170.773 132.347C170.783 131.781 170.624 131.225 170.316 130.75C170.009 130.275 169.567 129.902 169.047 129.679C168.527 129.457 167.953 129.393 167.397 129.498C166.841 129.603 166.329 129.871 165.926 130.268C165.523 130.666 165.247 131.174 165.134 131.728C165.021 132.283 165.075 132.858 165.291 133.381C165.506 133.904 165.872 134.352 166.343 134.666C166.813 134.98 167.367 135.147 167.933 135.146C168.305 135.158 168.677 135.094 169.024 134.959C169.372 134.823 169.688 134.618 169.954 134.356C170.219 134.094 170.429 133.781 170.57 133.436C170.711 133.09 170.78 132.72 170.773 132.347Z" fill="white"/>
<path d="M176.719 133.738H173.051L172.223 135.534H171.727L174.658 129.15H175.121L178.052 135.534H177.556L176.719 133.738ZM176.546 133.348L174.89 129.664L173.234 133.348H176.546Z" fill="white"/>
<path d="M179.192 129.167H181.717C182.15 129.145 182.583 129.211 182.989 129.362C183.396 129.512 183.767 129.744 184.082 130.042C184.396 130.341 184.646 130.7 184.817 131.099C184.988 131.497 185.076 131.926 185.076 132.359C185.076 132.793 184.988 133.221 184.817 133.62C184.646 134.018 184.396 134.377 184.082 134.676C183.767 134.974 183.396 135.206 182.989 135.356C182.583 135.507 182.15 135.573 181.717 135.551H179.192V129.167ZM181.676 135.129C182.052 135.149 182.429 135.093 182.783 134.963C183.137 134.833 183.461 134.633 183.734 134.373C184.008 134.114 184.226 133.802 184.375 133.456C184.524 133.109 184.601 132.736 184.601 132.359C184.601 131.982 184.524 131.609 184.375 131.263C184.226 130.916 184.008 130.604 183.734 130.345C183.461 130.086 183.137 129.885 182.783 129.755C182.429 129.625 182.052 129.569 181.676 129.59H179.672V135.129H181.676Z" fill="white"/>
<path d="M186.712 129.167H187.184V135.551H186.712V129.167Z" fill="white"/>
<path d="M194.577 129.167V135.551H194.196L189.866 129.995V135.534H189.402V129.167H189.791L194.13 134.706V129.167H194.577Z" fill="white"/>
<path d="M201.366 132.371H201.813V134.756C201.186 135.31 200.373 135.606 199.536 135.584C199.098 135.606 198.66 135.539 198.248 135.387C197.837 135.234 197.46 135 197.142 134.697C196.824 134.395 196.571 134.031 196.398 133.627C196.225 133.224 196.135 132.79 196.135 132.351C196.135 131.912 196.225 131.477 196.398 131.074C196.571 130.671 196.824 130.307 197.142 130.004C197.46 129.702 197.837 129.467 198.248 129.315C198.66 129.162 199.098 129.095 199.536 129.117C199.96 129.1 200.382 129.169 200.777 129.32C201.173 129.471 201.534 129.701 201.838 129.995L201.54 130.301C201.277 130.046 200.964 129.847 200.621 129.718C200.277 129.588 199.911 129.53 199.545 129.548C199.103 129.563 198.67 129.683 198.283 129.897C197.896 130.111 197.565 130.413 197.317 130.78C197.069 131.146 196.911 131.566 196.856 132.005C196.801 132.444 196.851 132.89 197.001 133.306C197.151 133.722 197.397 134.097 197.72 134.4C198.043 134.702 198.432 134.925 198.857 135.048C199.282 135.172 199.73 135.193 200.164 135.111C200.599 135.029 201.008 134.845 201.358 134.574L201.366 132.371Z" fill="white"/>
<path d="M203.362 135.178C203.353 135.123 203.357 135.067 203.373 135.013C203.389 134.959 203.416 134.91 203.452 134.867C203.489 134.825 203.534 134.791 203.585 134.768C203.635 134.744 203.691 134.732 203.747 134.732C203.802 134.732 203.858 134.744 203.909 134.768C203.959 134.791 204.005 134.825 204.041 134.867C204.078 134.91 204.105 134.959 204.12 135.013C204.136 135.067 204.14 135.123 204.132 135.178C204.14 135.233 204.136 135.29 204.12 135.344C204.105 135.397 204.078 135.447 204.041 135.489C204.005 135.531 203.959 135.565 203.909 135.589C203.858 135.612 203.802 135.624 203.747 135.624C203.691 135.624 203.635 135.612 203.585 135.589C203.534 135.565 203.489 135.531 203.452 135.489C203.416 135.447 203.389 135.397 203.373 135.344C203.357 135.29 203.353 135.233 203.362 135.178Z" fill="white"/>
<path d="M205.184 135.178C205.176 135.123 205.18 135.067 205.196 135.013C205.211 134.959 205.238 134.91 205.275 134.867C205.311 134.825 205.357 134.791 205.407 134.768C205.458 134.744 205.513 134.732 205.569 134.732C205.625 134.732 205.68 134.744 205.731 134.768C205.782 134.791 205.827 134.825 205.864 134.867C205.9 134.91 205.927 134.959 205.943 135.013C205.959 135.067 205.962 135.123 205.954 135.178C205.962 135.233 205.959 135.29 205.943 135.344C205.927 135.397 205.9 135.447 205.864 135.489C205.827 135.531 205.782 135.565 205.731 135.589C205.68 135.612 205.625 135.624 205.569 135.624C205.513 135.624 205.458 135.612 205.407 135.589C205.357 135.565 205.311 135.531 205.275 135.489C205.238 135.447 205.211 135.397 205.196 135.344C205.18 135.29 205.176 135.233 205.184 135.178Z" fill="white"/>
<path d="M206.999 135.178C206.991 135.123 206.995 135.067 207.011 135.013C207.026 134.959 207.053 134.91 207.09 134.867C207.126 134.825 207.172 134.791 207.222 134.768C207.273 134.744 207.328 134.732 207.384 134.732C207.44 134.732 207.495 134.744 207.546 134.768C207.597 134.791 207.642 134.825 207.679 134.867C207.715 134.91 207.742 134.959 207.758 135.013C207.774 135.067 207.777 135.123 207.769 135.178C207.777 135.233 207.774 135.29 207.758 135.344C207.742 135.397 207.715 135.447 207.679 135.489C207.642 135.531 207.597 135.565 207.546 135.589C207.495 135.612 207.44 135.624 207.384 135.624C207.328 135.624 207.273 135.612 207.222 135.589C207.172 135.565 207.126 135.531 207.09 135.489C207.053 135.447 207.026 135.397 207.011 135.344C206.995 135.29 206.991 135.233 206.999 135.178Z" fill="white"/>
</g>
<path d="M237.79 77.9229H129.421V253.252H237.79V77.9229Z" stroke="#263238" stroke-width="0.828" stroke-linecap="round" stroke-linejoin="round"/>
<path d="M195.407 65.6521H171.825C171.399 65.6521 170.99 65.4829 170.689 65.1816C170.388 64.8804 170.219 64.4718 170.219 64.0458C170.219 63.6197 170.388 63.2112 170.689 62.9099C170.99 62.6087 171.399 62.4395 171.825 62.4395H195.407C195.833 62.4395 196.241 62.6087 196.542 62.9099C196.844 63.2112 197.013 63.6197 197.013 64.0458C197.013 64.4718 196.844 64.8804 196.542 65.1816C196.241 65.4829 195.833 65.6521 195.407 65.6521Z" fill="#263238"/>
<path d="M190.031 263.155C190.031 261.884 189.654 260.642 188.948 259.585C188.242 258.528 187.239 257.705 186.065 257.219C184.891 256.732 183.599 256.605 182.352 256.853C181.106 257.101 179.961 257.713 179.063 258.611C178.164 259.51 177.552 260.655 177.304 261.901C177.056 263.148 177.183 264.44 177.67 265.614C178.156 266.788 178.98 267.791 180.036 268.497C181.093 269.203 182.335 269.58 183.606 269.58C184.45 269.581 185.286 269.416 186.066 269.093C186.846 268.771 187.555 268.297 188.152 267.701C188.749 267.104 189.222 266.395 189.544 265.615C189.867 264.835 190.032 263.999 190.031 263.155Z" fill="white" stroke="#263238" stroke-width="0.583188" stroke-linecap="round" stroke-linejoin="round"/>
<path d="M186.869 259.9H180.353V266.417H186.869V259.9Z" fill="#263238"/>
<path d="M245.107 370.778C325.956 370.778 391.498 364.78 391.498 357.381C391.498 349.982 325.956 343.984 245.107 343.984C164.258 343.984 98.7168 349.982 98.7168 357.381C98.7168 364.78 164.258 370.778 245.107 370.778Z" fill="#263238" stroke="#263238" stroke-width="0.828" stroke-linecap="round" stroke-linejoin="round"/>
<path d="M306.269 192.245H276.047C248.609 192.245 226.367 214.488 226.367 241.925V296.159C226.367 323.597 248.609 345.839 276.047 345.839H306.269C333.706 345.839 355.949 323.597 355.949 296.159V241.925C355.949 214.488 333.706 192.245 306.269 192.245Z" fill="#79DB9A"/>
<mask id="mask1_3872_12763" style="mask-type:luminance" maskUnits="userSpaceOnUse" x="226" y="192" width="130" height="154">
<path d="M306.267 192.245H276.045C248.607 192.245 226.365 214.488 226.365 241.925V296.159C226.365 323.597 248.607 345.839 276.045 345.839H306.267C333.704 345.839 355.947 323.597 355.947 296.159V241.925C355.947 214.488 333.704 192.245 306.267 192.245Z" fill="white"/>
</mask>
<g mask="url(#mask1_3872_12763)">
<path opacity="0.3" d="M313.381 192.758C312.81 192.676 312.247 192.609 311.675 192.543L310.847 192.469C310.334 192.419 309.812 192.378 309.291 192.344L308.554 192.303C307.792 192.303 307.03 192.245 306.26 192.245H290.479L290.106 294.296C290.106 294.296 318.026 293.882 320.485 292.243C322.944 290.603 331.978 229.017 331.158 221.631C330.338 214.245 313.919 202.744 313.919 202.744V196.807C322.539 200.783 329.84 207.146 334.957 215.142C340.074 223.138 342.793 232.432 342.792 241.925V296.159C342.792 309.335 337.557 321.971 328.241 331.288C318.924 340.605 306.288 345.839 293.112 345.839H306.252C319.428 345.839 332.064 340.605 341.381 331.288C350.698 321.971 355.932 309.335 355.932 296.159V241.925C355.932 229.984 351.631 218.443 343.817 209.414C336.003 200.385 325.198 194.472 313.381 192.758Z" fill="black"/>
</g>
<path d="M306.269 192.245H276.047C248.609 192.245 226.367 214.488 226.367 241.925V296.159C226.367 323.597 248.609 345.839 276.047 345.839H306.269C333.706 345.839 355.949 323.597 355.949 296.159V241.925C355.949 214.488 333.706 192.245 306.269 192.245Z" stroke="#263238" stroke-width="0.828" stroke-linecap="round" stroke-linejoin="round"/>
<path d="M214.565 263.039H187.606C180.632 263.039 174.979 268.692 174.979 275.666V348.116C174.979 355.09 180.632 360.743 187.606 360.743H214.565C221.539 360.743 227.192 355.09 227.192 348.116V275.666C227.192 268.692 221.539 263.039 214.565 263.039Z" fill="#79DB9A"/>
<mask id="mask2_3872_12763" style="mask-type:luminance" maskUnits="userSpaceOnUse" x="174" y="263" width="54" height="98">
<path d="M214.567 263.039H187.607C180.634 263.039 174.98 268.692 174.98 275.666V348.116C174.98 355.09 180.634 360.743 187.607 360.743H214.567C221.541 360.743 227.194 355.09 227.194 348.116V275.666C227.194 268.692 221.541 263.039 214.567 263.039Z" fill="white"/>
</mask>
<g mask="url(#mask2_3872_12763)">
<path opacity="0.3" d="M214.567 263.039H187.607C180.634 263.039 174.98 268.692 174.98 275.666V348.116C174.98 355.09 180.634 360.743 187.607 360.743H214.567C221.541 360.743 227.194 355.09 227.194 348.116V275.666C227.194 268.692 221.541 263.039 214.567 263.039Z" fill="black"/>
</g>
<path d="M214.565 263.039H187.606C180.632 263.039 174.979 268.692 174.979 275.666V348.116C174.979 355.09 180.632 360.743 187.606 360.743H214.565C221.539 360.743 227.192 355.09 227.192 348.116V275.666C227.192 268.692 221.539 263.039 214.565 263.039Z" stroke="#263238" stroke-width="0.828" stroke-linecap="round" stroke-linejoin="round"/>
<path d="M176.605 263.039H191.509C194.857 263.039 198.069 264.369 200.437 266.737C202.805 269.105 204.136 272.317 204.136 275.666V358.151C204.136 358.839 203.862 359.498 203.376 359.984C202.89 360.47 202.231 360.743 201.544 360.743H166.569C165.882 360.743 165.223 360.47 164.737 359.984C164.251 359.498 163.978 358.839 163.978 358.151V275.666C163.978 272.317 165.308 269.105 167.676 266.737C170.044 264.369 173.256 263.039 176.605 263.039Z" fill="#79DB9A"/>
<mask id="mask3_3872_12763" style="mask-type:luminance" maskUnits="userSpaceOnUse" x="163" y="263" width="42" height="98">
<path d="M176.606 263.039H191.51C194.858 263.039 198.07 264.369 200.438 266.737C202.806 269.105 204.137 272.317 204.137 275.666V358.151C204.137 358.839 203.863 359.498 203.377 359.984C202.891 360.47 202.232 360.743 201.545 360.743H166.57C165.883 360.743 165.224 360.47 164.738 359.984C164.252 359.498 163.979 358.839 163.979 358.151V275.666C163.979 272.317 165.309 269.105 167.677 266.737C170.045 264.369 173.257 263.039 176.606 263.039Z" fill="white"/>
</mask>
<g mask="url(#mask3_3872_12763)">
<path opacity="0.3" d="M191.509 263.039H185.167C188.516 263.039 191.728 264.369 194.096 266.737C196.464 269.105 197.794 272.317 197.794 275.666V348.116C197.794 351.465 196.464 354.677 194.096 357.045C191.728 359.413 188.516 360.743 185.167 360.743H201.951C202.238 360.743 202.523 360.686 202.789 360.576C203.055 360.466 203.296 360.304 203.499 360.1C203.702 359.896 203.863 359.654 203.972 359.388C204.082 359.122 204.138 358.837 204.136 358.549V275.666C204.136 272.317 202.806 269.105 200.438 266.737C198.07 264.369 194.858 263.039 191.509 263.039Z" fill="black"/>
</g>
<path d="M176.605 263.039H191.509C194.857 263.039 198.069 264.369 200.437 266.737C202.805 269.105 204.136 272.317 204.136 275.666V358.151C204.136 358.839 203.862 359.498 203.376 359.984C202.89 360.47 202.231 360.743 201.544 360.743H166.569C165.882 360.743 165.223 360.47 164.737 359.984C164.251 359.498 163.978 358.839 163.978 358.151V275.666C163.978 272.317 165.308 269.105 167.676 266.737C170.044 264.369 173.256 263.039 176.605 263.039Z" stroke="#263238" stroke-width="0.828" stroke-linecap="round" stroke-linejoin="round"/>
<path d="M211.876 290.363H318.042C320.897 290.363 323.635 291.497 325.654 293.516C327.672 295.535 328.806 298.272 328.806 301.127V357.945C328.806 358.687 328.512 359.399 327.987 359.924C327.462 360.448 326.75 360.743 326.008 360.743H203.911C203.169 360.743 202.457 360.448 201.932 359.924C201.407 359.399 201.112 358.687 201.112 357.945V301.127C201.112 298.272 202.246 295.535 204.265 293.516C206.284 291.497 209.022 290.363 211.876 290.363Z" fill="#79DB9A" stroke="#263238" stroke-width="0.828" stroke-linecap="round" stroke-linejoin="round"/>
<path d="M201.112 323.069H316.817" stroke="#263238" stroke-width="0.828" stroke-linecap="round" stroke-linejoin="round"/>
<path d="M223.883 285.122C223.883 285.122 215.876 284.294 215.876 287.052C215.876 289.809 219.462 291.465 226.367 291.746C230.24 291.937 234.122 291.751 237.959 291.192C237.959 291.192 228.851 286.224 223.883 285.122Z" fill="white"/>
<mask id="mask4_3872_12763" style="mask-type:luminance" maskUnits="userSpaceOnUse" x="215" y="285" width="23" height="7">
<path d="M223.885 285.121C223.885 285.121 215.878 284.293 215.878 287.051C215.878 289.808 219.464 291.464 226.369 291.745C230.242 291.936 234.124 291.75 237.961 291.191C237.961 291.191 228.853 286.223 223.885 285.121Z" fill="white"/>
</mask>
<g mask="url(#mask4_3872_12763)">
<path opacity="0.15" d="M223.885 285.121C223.885 285.121 215.878 284.293 215.878 287.051C215.878 289.808 219.464 291.464 226.369 291.745C230.242 291.936 234.124 291.75 237.961 291.191C237.961 291.191 228.853 286.223 223.885 285.121Z" fill="black"/>
</g>
<path d="M223.883 285.122C223.883 285.122 215.876 284.294 215.876 287.052C215.876 289.809 219.462 291.465 226.367 291.746C230.24 291.937 234.122 291.751 237.959 291.192C237.959 291.192 228.851 286.224 223.883 285.122Z" stroke="#263238" stroke-width="0.828" stroke-linecap="round" stroke-linejoin="round"/>
<path d="M263.545 268.273C263.545 268.273 255.571 269.241 254.114 269.241C252.656 269.241 223.163 257.393 217.367 257.393C211.571 257.393 209.145 269.722 217.607 277.703C226.069 285.685 259.165 295.597 277.091 294.661C295.017 293.725 307.073 281.363 307.073 272.901C307.073 264.439 287.242 269.995 279.268 267.817C271.295 265.639 263.545 268.273 263.545 268.273Z" fill="#263238" stroke="#263238" stroke-width="0.828" stroke-linecap="round" stroke-linejoin="round"/>
<path d="M259.165 271.692C259.165 271.692 266.617 276.528 268.836 280.875" stroke="white" stroke-width="0.828" stroke-linecap="round" stroke-linejoin="round"/>
<path d="M312.636 207.828C304.414 197.677 286.521 196.708 274.673 198.638C274.673 198.638 261.615 202.513 259.197 208.069C256.78 213.624 243.755 238.175 243.755 238.175C243.755 238.175 228.851 246.662 223.196 248.839C219.056 250.446 212.896 251.563 209.948 252.035C207.547 250.959 200.765 247.978 198.853 247.978C196.509 247.978 193.703 252.665 195.102 254.064C196.501 255.463 201.304 258.626 205.154 258.345C206.487 259.694 241.048 253.145 244.641 252.598C248.235 252.052 265.739 228.139 265.739 228.139C265.739 228.139 266.947 249.667 265.498 258.121C264.049 266.575 260.663 268.057 261.632 268.521C262.6 268.985 269.605 272.876 287.018 273.116C304.431 273.356 312.893 267.32 312.893 267.32C312.893 267.32 318.938 237.338 319.906 229.597C320.875 221.855 320.858 218.013 312.636 207.828Z" fill="white"/>
<mask id="mask5_3872_12763" style="mask-type:luminance" maskUnits="userSpaceOnUse" x="194" y="197" width="127" height="77">
<path d="M312.638 207.828C304.416 197.677 286.523 196.708 274.674 198.638C274.674 198.638 261.617 202.513 259.199 208.069C256.781 213.624 243.757 238.175 243.757 238.175C243.757 238.175 228.853 246.662 223.197 248.839C219.057 250.446 212.897 251.563 209.949 252.035C207.548 250.959 200.767 247.978 198.854 247.978C196.511 247.978 193.704 252.665 195.103 254.064C196.503 255.463 201.305 258.626 205.155 258.345C206.488 259.694 241.049 253.145 244.643 252.598C248.236 252.052 265.74 228.139 265.74 228.139C265.74 228.139 266.949 249.667 265.5 258.121C264.051 266.575 260.664 268.057 261.633 268.521C262.602 268.985 269.607 272.876 287.02 273.116C304.432 273.356 312.895 267.32 312.895 267.32C312.895 267.32 318.939 237.338 319.908 229.597C320.876 221.855 320.86 218.013 312.638 207.828Z" fill="white"/>
</mask>
<g mask="url(#mask5_3872_12763)">
<path d="M235.451 251.225C235.451 251.225 219.098 255.365 213.427 256.789C210.62 257.493 207.465 258.022 204.998 258.379H205.138C206.264 259.521 231.179 255.009 240.999 253.261L235.451 251.225Z" fill="#79DB9A"/>
<path opacity="0.5" d="M235.451 251.225C235.451 251.225 219.098 255.365 213.427 256.789C210.62 257.493 207.465 258.022 204.998 258.379H205.138C206.264 259.521 231.179 255.009 240.999 253.261L235.451 251.225Z" fill="white"/>
</g>
<path d="M312.636 207.828C304.414 197.677 286.521 196.708 274.673 198.638C274.673 198.638 261.615 202.513 259.197 208.069C256.78 213.624 243.755 238.175 243.755 238.175C243.755 238.175 228.851 246.662 223.196 248.839C219.056 250.446 212.896 251.563 209.948 252.035C207.547 250.959 200.765 247.978 198.853 247.978C196.509 247.978 193.703 252.665 195.102 254.064C196.501 255.463 201.304 258.626 205.154 258.345C206.487 259.694 241.048 253.145 244.641 252.598C248.235 252.052 265.739 228.139 265.739 228.139C265.739 228.139 266.947 249.667 265.498 258.121C264.049 266.575 260.663 268.057 261.632 268.521C262.6 268.985 269.605 272.876 287.018 273.116C304.431 273.356 312.893 267.32 312.893 267.32C312.893 267.32 318.938 237.338 319.906 229.597C320.875 221.855 320.858 218.013 312.636 207.828Z" stroke="#263238" stroke-width="0.828" stroke-linecap="round" stroke-linejoin="round"/>
<path d="M209.931 252.06C209.931 252.06 207.339 247.92 206.379 247.092C205.418 246.264 203.489 245.718 201.701 245.031C199.912 244.343 197.561 241.719 197.436 242.414C197.312 243.11 197.022 243.929 198.538 245.163C199.521 245.956 200.58 246.65 201.701 247.233C201.701 247.233 199.639 248.74 199.771 250.669C199.904 252.598 203.348 253.153 206.097 253.559" fill="white"/>
<path d="M209.931 252.06C209.931 252.06 207.339 247.92 206.379 247.092C205.418 246.264 203.489 245.718 201.701 245.031C199.912 244.343 197.561 241.719 197.436 242.414C197.312 243.11 197.022 243.929 198.538 245.163C199.521 245.956 200.58 246.65 201.701 247.233C201.701 247.233 199.639 248.74 199.771 250.669C199.904 252.598 203.348 253.153 206.097 253.559" stroke="#263238" stroke-width="0.828" stroke-linecap="round" stroke-linejoin="round"/>
<path d="M186.043 236.312L181.447 238.034L200.293 253.658L202.462 249.377L186.043 236.312Z" fill="#263238" stroke="#263238" stroke-width="0.828" stroke-linecap="round" stroke-linejoin="round"/>
<path d="M196.334 255.074L188.352 249.427C188.352 249.427 186.29 243.101 187.664 242.968C189.039 242.836 188.906 247.779 188.906 247.779L190.14 248.74C190.14 248.74 189.594 244.202 190.281 244.061C190.968 243.921 191.241 245.03 191.382 245.85C191.523 246.67 192.21 248.88 192.21 248.88L193.179 249.427C193.048 248.148 193.001 246.862 193.038 245.577C193.179 244.889 194.139 245.303 194.28 246.264C194.421 247.224 195.381 251.083 195.381 251.083C195.381 251.083 197.037 246.405 197.443 247.638C197.849 248.872 197.302 251.497 197.302 251.497C197.302 251.497 201.152 253.832 201.442 255.074" fill="white"/>
<path d="M196.334 255.074L188.352 249.427C188.352 249.427 186.29 243.101 187.664 242.968C189.039 242.836 188.906 247.779 188.906 247.779L190.14 248.74C190.14 248.74 189.594 244.202 190.281 244.061C190.968 243.921 191.241 245.03 191.382 245.85C191.523 246.67 192.21 248.88 192.21 248.88L193.179 249.427C193.048 248.148 193.001 246.862 193.038 245.577C193.179 244.889 194.139 245.303 194.28 246.264C194.421 247.224 195.381 251.083 195.381 251.083C195.381 251.083 197.037 246.405 197.443 247.638C197.849 248.872 197.302 251.497 197.302 251.497C197.302 251.497 201.152 253.832 201.442 255.074" stroke="#263238" stroke-width="0.828" stroke-linecap="round" stroke-linejoin="round"/>
<path d="M195.409 251.083C195.409 251.083 197.412 255.827 198.456 256.448" stroke="#263238" stroke-width="0.828" stroke-linecap="round" stroke-linejoin="round"/>
<path d="M193.173 249.427C193.389 250.822 193.682 252.204 194.051 253.567" stroke="#263238" stroke-width="0.828" stroke-linecap="round" stroke-linejoin="round"/>
<path d="M190.14 248.739C190.317 249.768 190.809 250.717 191.548 251.455" stroke="#263238" stroke-width="0.828" stroke-linecap="round" stroke-linejoin="round"/>
<path d="M274.674 198.663C274.674 198.663 261.65 202.538 259.166 208.094C256.682 213.65 243.724 238.2 243.724 238.2C243.724 238.2 238.308 241.636 231.428 245.039C233.831 247.538 235.528 250.629 236.346 253.998C240.42 253.319 243.591 252.773 244.626 252.624C248.22 252.069 265.724 228.165 265.724 228.165C265.724 228.165 266.932 249.693 265.483 258.146C264.125 266.054 261.087 267.842 261.484 268.439C263.024 271.486 263.024 274.152 272.339 275.063C275.395 275.443 282.805 273.108 287.003 273.166C304.391 273.407 312.878 267.37 312.878 267.37C312.878 267.37 318.922 237.389 319.891 229.647C320.86 221.905 320.86 218.055 312.638 207.887C304.416 197.719 286.49 196.734 274.674 198.663Z" fill="white"/>
<mask id="mask6_3872_12763" style="mask-type:luminance" maskUnits="userSpaceOnUse" x="231" y="197" width="90" height="79">
<path d="M274.675 198.662C274.675 198.662 261.65 202.537 259.166 208.093C256.682 213.649 243.724 238.199 243.724 238.199C243.724 238.199 238.309 241.635 231.428 245.038C233.831 247.537 235.529 250.628 236.347 253.997C240.42 253.318 243.592 252.772 244.627 252.623C248.22 252.068 265.724 228.164 265.724 228.164C265.724 228.164 266.933 249.692 265.484 258.146C264.126 266.053 261.087 267.841 261.485 268.438C263.025 271.485 263.025 274.151 272.34 275.062C275.395 275.442 282.806 273.107 287.004 273.165C304.392 273.406 312.879 267.369 312.879 267.369C312.879 267.369 318.923 237.388 319.892 229.646C320.86 221.904 320.86 218.054 312.638 207.886C304.416 197.718 286.49 196.733 274.675 198.662Z" fill="white"/>
</mask>
<g mask="url(#mask6_3872_12763)">
<path opacity="0.15" d="M235.452 251.223C239.674 249.724 245.644 247.315 247.201 245.237C249.685 241.925 264.175 220.397 264.175 220.397C265.031 223.109 265.398 225.952 265.26 228.793C262.469 232.568 247.872 252.126 244.626 252.622C243.624 252.771 240.486 253.318 236.346 253.997C236.105 253.055 235.806 252.128 235.452 251.223ZM312.638 207.828C309.483 203.936 304.904 201.394 299.796 199.846C295.15 222.988 289.677 257.267 286.117 260.53C281.149 265.084 273.697 267.568 279.269 267.791C284.842 268.015 285.703 266.326 285.703 269.224C285.764 270.57 285.593 271.918 285.198 273.206C285.797 273.141 286.4 273.111 287.003 273.115C304.391 273.356 312.878 267.319 312.878 267.319C312.878 267.319 318.922 237.338 319.891 229.596C320.86 221.854 320.86 218.012 312.638 207.828Z" fill="black"/>
<path d="M263.629 217.913L265.723 228.163L261.145 215.429" stroke="#263238" stroke-width="0.828" stroke-linecap="round" stroke-linejoin="round"/>
</g>
<path d="M274.674 198.663C274.674 198.663 261.65 202.538 259.166 208.094C256.682 213.65 243.724 238.2 243.724 238.2C243.724 238.2 238.308 241.636 231.428 245.039C233.831 247.538 235.528 250.629 236.346 253.998C240.42 253.319 243.591 252.773 244.626 252.624C248.22 252.069 265.724 228.165 265.724 228.165C265.724 228.165 266.932 249.693 265.483 258.146C264.125 266.054 261.087 267.842 261.484 268.439C263.024 271.486 263.024 274.152 272.339 275.063C275.395 275.443 282.805 273.108 287.003 273.166C304.391 273.407 312.878 267.37 312.878 267.37C312.878 267.37 318.922 237.389 319.891 229.647C320.86 221.905 320.86 218.055 312.638 207.887C304.416 197.719 286.49 196.734 274.674 198.663Z" stroke="#263238" stroke-width="0.828" stroke-linecap="round" stroke-linejoin="round"/>
<path d="M295.951 295.141C295.951 295.141 308.909 294.801 316.014 283.052C321.578 273.869 316.014 264.678 306.591 263.71C297.168 262.741 290.677 270.822 282.165 275.302C264.777 284.484 250.006 285.453 240.334 286.662C230.663 287.871 232.353 289.08 241.783 292.458C251.214 295.836 277.81 299.496 295.951 295.141Z" fill="#263238" stroke="#263238" stroke-width="0.828" stroke-linecap="round" stroke-linejoin="round"/>
<path d="M262.8 284.154C262.8 284.154 276.297 280.271 287.971 272.901" stroke="white" stroke-width="0.828" stroke-linecap="round" stroke-linejoin="round"/>
<path d="M295.955 295.141C295.955 295.141 306.106 291.763 311.687 278.945" stroke="#263238" stroke-width="0.828" stroke-linecap="round" stroke-linejoin="round"/>
<path d="M217.368 257.425C217.368 257.425 212.532 256.216 208.906 262.741C205.279 269.266 208.177 277.007 217.848 284.269C227.519 291.531 253.369 295.596 254.114 295.596C254.859 295.596 257.261 285.66 257.261 285.66L225.101 262.931" fill="#263238"/>
<path d="M217.368 257.425C217.368 257.425 212.532 256.216 208.906 262.741C205.279 269.266 208.177 277.007 217.848 284.269C227.519 291.531 253.369 295.596 254.114 295.596C254.859 295.596 257.261 285.66 257.261 285.66L225.101 262.931" stroke="#263238" stroke-width="0.828" stroke-linecap="round" stroke-linejoin="round"/>
<path d="M232.385 268.148L229.677 265.938" stroke="white" stroke-width="0.828" stroke-linecap="round" stroke-linejoin="round"/>
<path d="M249.966 282.497L235.592 270.765" stroke="white" stroke-width="0.828" stroke-linecap="round" stroke-linejoin="round"/>
<path d="M258.47 288.145C258.47 288.145 275.154 293.7 280.958 293.7C286.763 293.7 302.238 291.771 301.75 295.878C301.261 299.985 296.194 300.714 288.452 300.018C280.71 299.323 255.854 295.39 255.854 295.39L258.47 288.145Z" fill="white"/>
<mask id="mask7_3872_12763" style="mask-type:luminance" maskUnits="userSpaceOnUse" x="255" y="288" width="47" height="13">
<path d="M258.472 288.145C258.472 288.145 275.156 293.7 280.96 293.7C286.765 293.7 302.24 291.771 301.751 295.878C301.263 299.985 296.196 300.714 288.454 300.018C280.712 299.323 255.855 295.39 255.855 295.39L258.472 288.145Z" fill="white"/>
</mask>
<g mask="url(#mask7_3872_12763)">
<path opacity="0.15" d="M258.472 288.145C258.472 288.145 275.156 293.7 280.96 293.7C286.765 293.7 302.24 291.771 301.751 295.878C301.263 299.985 296.196 300.714 288.454 300.018C280.712 299.323 255.855 295.39 255.855 295.39L258.472 288.145Z" fill="black"/>
</g>
<path d="M258.47 288.145C258.47 288.145 275.154 293.7 280.958 293.7C286.763 293.7 302.238 291.771 301.75 295.878C301.261 299.985 296.194 300.714 288.452 300.018C280.71 299.323 255.854 295.39 255.854 295.39L258.47 288.145Z" stroke="#263238" stroke-width="0.828" stroke-linecap="round" stroke-linejoin="round"/>
<path d="M253.632 282.349L248.557 295.406C251.112 295.941 253.693 296.345 256.29 296.615C257.988 296.615 259.917 285.727 259.917 285.023C259.917 284.319 253.632 282.349 253.632 282.349Z" fill="white" stroke="#263238" stroke-width="0.828" stroke-linecap="round" stroke-linejoin="round"/>
<path d="M328.833 263.039H343.737C347.085 263.039 350.297 264.369 352.665 266.737C355.033 269.105 356.364 272.317 356.364 275.666V358.151C356.364 358.839 356.09 359.498 355.604 359.984C355.118 360.47 354.459 360.743 353.772 360.743H318.781C318.093 360.743 317.434 360.47 316.948 359.984C316.462 359.498 316.189 358.839 316.189 358.151V275.666C316.189 272.317 317.519 269.105 319.887 266.737C322.255 264.369 325.467 263.039 328.816 263.039H328.833Z" fill="#79DB9A"/>
<mask id="mask8_3872_12763" style="mask-type:luminance" maskUnits="userSpaceOnUse" x="316" y="263" width="41" height="98">
<path d="M328.834 263.039H343.738C347.087 263.039 350.299 264.369 352.667 266.737C355.035 269.105 356.365 272.317 356.365 275.666V358.151C356.365 358.839 356.092 359.498 355.606 359.984C355.12 360.47 354.461 360.743 353.774 360.743H318.783C318.095 360.743 317.436 360.47 316.95 359.984C316.464 359.498 316.191 358.839 316.191 358.151V275.666C316.191 272.317 317.521 269.105 319.889 266.737C322.257 264.369 325.469 263.039 328.818 263.039H328.834Z" fill="white"/>
</mask>
<g mask="url(#mask8_3872_12763)">
<path opacity="0.3" d="M343.74 263.039H337.389C340.738 263.039 343.95 264.369 346.318 266.737C348.686 269.105 350.016 272.317 350.016 275.666V348.116C350.016 351.465 348.686 354.677 346.318 357.045C343.95 359.413 340.738 360.743 337.389 360.743H354.173C354.755 360.743 355.313 360.512 355.724 360.1C356.136 359.689 356.367 359.131 356.367 358.549V275.666C356.367 272.317 355.037 269.105 352.669 266.737C350.301 264.369 347.089 263.039 343.74 263.039Z" fill="black"/>
</g>
<path d="M328.833 263.039H343.737C347.085 263.039 350.297 264.369 352.665 266.737C355.033 269.105 356.364 272.317 356.364 275.666V358.151C356.364 358.839 356.09 359.498 355.604 359.984C355.118 360.47 354.459 360.743 353.772 360.743H318.781C318.093 360.743 317.434 360.47 316.948 359.984C316.462 359.498 316.189 358.839 316.189 358.151V275.666C316.189 272.317 317.519 269.105 319.887 266.737C322.255 264.369 325.467 263.039 328.816 263.039H328.833Z" stroke="#263238" stroke-width="0.828" stroke-linecap="round" stroke-linejoin="round"/>
<path d="M264.755 166.751C264.755 166.751 254.115 169.889 257.502 173.516C260.888 177.142 271.048 175.453 271.048 175.453L264.755 166.751Z" fill="#263238" stroke="#263238" stroke-width="0.828" stroke-linecap="round" stroke-linejoin="round"/>
<path d="M276.122 200.6C276.122 200.6 282.646 215.347 284.103 212.449C285.561 209.551 285.759 195.284 285.759 195.284L276.122 200.6Z" stroke="#263238" stroke-width="0.828" stroke-linecap="round" stroke-linejoin="round"/>
<path d="M267.02 170.378C264.354 174.899 264.363 180.91 265.977 186.069C266.466 187.617 262.914 189.96 262.914 190.929C262.914 191.898 265.571 192.138 265.571 192.138C265.571 192.138 268.544 201.676 270.962 202.157C273.379 202.637 283.465 197.942 285.154 196.733C286.843 195.524 286.611 183.435 283.705 178.352C280.798 173.268 272.096 166.263 267.02 170.378Z" fill="white"/>
<mask id="mask9_3872_12763" style="mask-type:luminance" maskUnits="userSpaceOnUse" x="262" y="169" width="25" height="34">
<path d="M267.023 170.378C264.357 174.899 264.366 180.91 265.98 186.069C266.469 187.617 262.917 189.96 262.917 190.929C262.917 191.898 265.574 192.138 265.574 192.138C265.574 192.138 268.547 201.676 270.965 202.157C273.382 202.637 283.467 197.942 285.157 196.733C286.846 195.524 286.614 183.435 283.708 178.352C280.801 173.268 272.099 166.263 267.023 170.378Z" fill="white"/>
</mask>
<g mask="url(#mask9_3872_12763)">
<path d="M285.155 196.733C286.852 195.525 286.612 183.436 283.706 178.352C281.947 175.501 279.57 173.081 276.751 171.272C274.209 174.17 272.205 176.563 272.205 176.563C272.205 176.563 277.877 186.011 278.506 192.941C279.077 199.3 271.154 201.147 269.87 201.403C269.944 201.492 270.024 201.575 270.11 201.652L271.17 202.182C273.902 202.397 283.507 197.893 285.155 196.733Z" fill="#79DB9A"/>
<path opacity="0.5" d="M285.155 196.733C286.852 195.525 286.612 183.436 283.706 178.352C281.947 175.501 279.57 173.081 276.751 171.272C274.209 174.17 272.205 176.563 272.205 176.563C272.205 176.563 277.877 186.011 278.506 192.941C279.077 199.3 271.154 201.147 269.87 201.403C269.944 201.492 270.024 201.575 270.11 201.652L271.17 202.182C273.902 202.397 283.507 197.893 285.155 196.733Z" fill="white"/>
</g>
<path d="M267.02 170.378C264.354 174.899 264.363 180.91 265.977 186.069C266.466 187.617 262.914 189.96 262.914 190.929C262.914 191.898 265.571 192.138 265.571 192.138C265.571 192.138 268.544 201.676 270.962 202.157C273.379 202.637 283.465 197.942 285.154 196.733C286.843 195.524 286.611 183.435 283.705 178.352C280.798 173.268 272.096 166.263 267.02 170.378Z" stroke="#263238" stroke-width="0.828" stroke-linecap="round" stroke-linejoin="round"/>
<path d="M268.272 184.776L268.057 186.714C268.057 186.714 270.848 187.542 271.493 186.499" stroke="#263238" stroke-width="0.828" stroke-linecap="round" stroke-linejoin="round"/>
<path d="M267.875 183.584C267.875 183.584 269.349 181.1 272.139 183.485" stroke="#263238" stroke-width="0.828" stroke-linecap="round" stroke-linejoin="round"/>
<path d="M270.631 187.145L269.132 187.782" stroke="#263238" stroke-width="0.828" stroke-linecap="round" stroke-linejoin="round"/>
<path d="M275.642 159.978C275.642 159.978 262.336 161.187 262.336 167.43C262.336 173.673 279.633 184.644 279.633 184.644L282.647 248.955H303.687C303.687 248.955 302.718 179.552 302.718 172.539C302.718 165.526 288.211 157.801 275.642 159.978Z" fill="#263238" stroke="#263238" stroke-width="0.828" stroke-linecap="round" stroke-linejoin="round"/>
<path d="M279.632 184.645C279.632 184.645 299.777 200.377 302.261 216.39" stroke="white" stroke-width="0.828" stroke-linecap="round" stroke-linejoin="round"/>
<path d="M291.457 229.1C291.418 230.099 291.352 231.109 291.258 232.13" stroke="white" stroke-width="0.828" stroke-linecap="round" stroke-linejoin="round"/>
<path d="M284.329 189.348C288.747 200.518 291.16 212.38 291.458 224.389" stroke="white" stroke-width="0.828" stroke-linecap="round" stroke-linejoin="round"/>
<path d="M285.157 168.912C285.157 168.912 295.192 175.47 300.268 190.001" stroke="white" stroke-width="0.828" stroke-linecap="round" stroke-linejoin="round"/>
<path d="M301.329 193.446C301.693 194.779 302.008 196.179 302.264 197.628" stroke="white" stroke-width="0.828" stroke-linecap="round" stroke-linejoin="round"/>
<path d="M317.713 215.347C320.371 219.222 322.309 221.639 320.86 226.939C319.411 232.238 294.016 269.009 290.87 268.769C287.723 268.529 285.314 267.113 283.856 262.973C282.399 258.833 287.996 252.333 287.996 252.333L305.053 222.459C305.053 222.459 308.291 217.764 312.124 216.191" fill="white"/>
<mask id="mask10_3872_12763" style="mask-type:luminance" maskUnits="userSpaceOnUse" x="283" y="215" width="39" height="54">
<path d="M317.712 215.347C320.37 219.222 322.308 221.639 320.859 226.939C319.41 232.238 294.015 269.009 290.869 268.769C287.722 268.529 285.313 267.113 283.855 262.973C282.398 258.833 287.995 252.333 287.995 252.333L305.052 222.459C305.052 222.459 308.29 217.764 312.123 216.191" fill="white"/>
</mask>
<g mask="url(#mask10_3872_12763)">
<path opacity="0.15" d="M312.829 226.947C306.528 229.431 285.116 258.411 285.116 258.411C285.116 258.411 284.611 260.696 284.181 263.784C285.655 267.262 287.948 268.537 290.871 268.752C293.636 268.968 313.608 240.6 319.371 230.101C319.097 228.628 317.955 224.91 312.829 226.947Z" fill="black"/>
</g>
<path d="M317.713 215.347C320.371 219.222 322.309 221.639 320.86 226.939C319.411 232.238 294.016 269.009 290.87 268.769C287.723 268.529 285.314 267.113 283.856 262.973C282.399 258.833 287.996 252.333 287.996 252.333L305.053 222.459C305.053 222.459 308.291 217.764 312.124 216.191" stroke="#263238" stroke-width="0.828" stroke-linecap="round" stroke-linejoin="round"/>
<path d="M293.111 257.939C291.455 252.143 280.518 222.699 280.518 220.91C280.518 218.973 280.998 204.466 280.998 204.466L280.029 203.017C280.029 203.017 277.611 199.631 276.402 199.631C275.194 199.631 274.953 201.08 274.473 201.808C273.993 202.537 271.327 203.017 270.838 204.226L270.358 205.435C269.961 205.714 269.627 206.074 269.377 206.49C269.127 206.907 268.968 207.371 268.909 207.853C268.669 209.55 272.776 218.733 273.264 221.151C273.753 223.568 279.789 255.248 281.238 261.292C282.687 267.336 286.314 272.884 288.011 272.884C288.011 272.884 292.366 269.978 293.575 266.351" fill="white"/>
<mask id="mask11_3872_12763" style="mask-type:luminance" maskUnits="userSpaceOnUse" x="268" y="199" width="26" height="74">
<path d="M293.11 257.939C291.454 252.143 280.516 222.699 280.516 220.91C280.516 218.973 280.996 204.466 280.996 204.466L280.027 203.017C280.027 203.017 277.609 199.631 276.401 199.631C275.192 199.631 274.951 201.08 274.471 201.808C273.991 202.537 271.325 203.017 270.836 204.226L270.356 205.435C269.959 205.714 269.625 206.074 269.375 206.49C269.125 206.907 268.966 207.371 268.907 207.853C268.667 209.55 272.774 218.733 273.262 221.151C273.751 223.568 279.787 255.248 281.236 261.292C282.685 267.336 286.312 272.884 288.009 272.884C288.009 272.884 292.364 269.978 293.573 266.351" fill="white"/>
</mask>
<g mask="url(#mask11_3872_12763)">
<path d="M272.52 212.456C272.52 214.36 280.949 258.186 286.306 271.823C286.709 272.372 287.297 272.755 287.962 272.9C287.962 272.9 292.317 269.994 293.526 266.367L293.112 257.938C291.456 252.142 280.51 222.698 280.51 220.91C280.51 218.972 280.99 204.466 280.99 204.466L280.022 203.017C280.022 203.017 272.52 210.253 272.52 212.456Z" fill="#79DB9A"/>
<path opacity="0.5" d="M272.52 212.456C272.52 214.36 280.949 258.186 286.306 271.823C286.709 272.372 287.297 272.755 287.962 272.9C287.962 272.9 292.317 269.994 293.526 266.367L293.112 257.938C291.456 252.142 280.51 222.698 280.51 220.91C280.51 218.972 280.99 204.466 280.99 204.466L280.022 203.017C280.022 203.017 272.52 210.253 272.52 212.456Z" fill="white"/>
</g>
<path d="M293.111 257.939C291.455 252.143 280.518 222.699 280.518 220.91C280.518 218.973 280.998 204.466 280.998 204.466L280.029 203.017C280.029 203.017 277.611 199.631 276.402 199.631C275.194 199.631 274.953 201.08 274.473 201.808C273.993 202.537 271.327 203.017 270.838 204.226L270.358 205.435C269.961 205.714 269.627 206.074 269.377 206.49C269.127 206.907 268.968 207.371 268.909 207.853C268.669 209.55 272.776 218.733 273.264 221.151C273.753 223.568 279.789 255.248 281.238 261.292C282.687 267.336 286.314 272.884 288.011 272.884C288.011 272.884 292.366 269.978 293.575 266.351" stroke="#263238" stroke-width="0.828" stroke-linecap="round" stroke-linejoin="round"/>
<path d="M293.11 257.938C292.166 254.784 289.152 246.289 286.387 238.48C282.727 242.505 279.97 244.616 278.032 245.717C279.398 252.639 280.674 258.924 281.237 261.292C282.686 267.336 286.312 272.884 288.01 272.884C288.01 272.884 292.365 269.978 293.574 266.351" fill="white"/>
<mask id="mask12_3872_12763" style="mask-type:luminance" maskUnits="userSpaceOnUse" x="278" y="238" width="16" height="35">
<path d="M293.11 257.938C292.166 254.784 289.152 246.289 286.386 238.48C282.726 242.505 279.969 244.616 278.032 245.717C279.398 252.639 280.673 258.924 281.236 261.292C282.685 267.336 286.312 272.884 288.009 272.884C288.009 272.884 292.364 269.978 293.573 266.351" fill="white"/>
</mask>
<g mask="url(#mask12_3872_12763)">
<path opacity="0.15" d="M272.519 212.456C272.519 214.36 280.948 258.186 286.305 271.823C286.707 272.372 287.296 272.755 287.961 272.9C287.961 272.9 292.929 269.389 294.146 265.762L293.07 257.938C291.414 252.142 280.467 222.698 280.467 220.91C280.467 218.972 280.948 204.466 280.948 204.466L279.979 203.017C279.979 203.017 272.519 210.253 272.519 212.456Z" fill="black"/>
</g>
<path d="M293.11 257.938C292.166 254.784 289.152 246.289 286.387 238.48C282.727 242.505 279.97 244.616 278.032 245.717C279.398 252.639 280.674 258.924 281.237 261.292C282.686 267.336 286.312 272.884 288.01 272.884C288.01 272.884 292.365 269.978 293.574 266.351" stroke="#263238" stroke-width="0.828" stroke-linecap="round" stroke-linejoin="round"/>
</svg>
