<svg width="28" height="28" viewBox="0 0 28 28" fill="none" xmlns="http://www.w3.org/2000/svg">
<rect x="0.5" y="0.5" width="27" height="27" rx="4.75" fill="white"/>
<rect x="0.5" y="0.5" width="27" height="27" rx="4.75" stroke="black"/>
<path d="M6.125 10.0625V8.09375C6.125 7.57161 6.33242 7.07085 6.70163 6.70163C7.07085 6.33242 7.57161 6.125 8.09375 6.125H10.0625M6.125 17.9375V19.9062C6.125 20.4284 6.33242 20.9292 6.70163 21.2984C7.07085 21.6676 7.57161 21.875 8.09375 21.875H10.0625M17.9375 6.125H19.9062C20.4284 6.125 20.9292 6.33242 21.2984 6.70163C21.6676 7.07085 21.875 7.57161 21.875 8.09375V10.0625M17.9375 21.875H19.9062C20.4284 21.875 20.9292 21.6676 21.2984 21.2984C21.6676 20.9292 21.875 20.4284 21.875 19.9062V17.9375M9.07812 14H18.9219" stroke="black" stroke-width="2" stroke-linecap="round" stroke-linejoin="round"/>
</svg>
